<?xml version="1.0" encoding="UTF-8" standalone="no"?>
<!DOCTYPE svg PUBLIC "-//W3C//DTD SVG 1.1//EN"
 "http://www.w3.org/Graphics/SVG/1.1/DTD/svg11.dtd">
<!-- Generated by graphviz version 2.43.0 (0)
 -->
<!-- Title: ArbolAVL Pages: 1 -->
<svg width="1814pt" height="328pt"
 viewBox="0.00 0.00 1814.00 328.00" xmlns="http://www.w3.org/2000/svg" xmlns:xlink="http://www.w3.org/1999/xlink">
<g id="graph0" class="graph" transform="scale(1 1) rotate(0) translate(4 324)">
<title>ArbolAVL</title>
<polygon fill="white" stroke="transparent" points="-4,4 -4,-324 1810,-324 1810,4 -4,4"/>
<!-- 8 -->
<g id="node1" class="node">
<title>8</title>
<polygon fill="none" stroke="black" points="961,-320 708,-320 708,-267 961,-267 961,-320"/>
<text text-anchor="middle" x="834.5" y="-304.8" font-family="Times,serif" font-size="14.00">ID: 8</text>
<text text-anchor="middle" x="834.5" y="-289.8" font-family="Times,serif" font-size="14.00">Repuesto: Correa de distribución</text>
<text text-anchor="middle" x="834.5" y="-274.8" font-family="Times,serif" font-size="14.00">Costo: 80</text>
</g>
<!-- 4 -->
<g id="node2" class="node">
<title>4</title>
<polygon fill="none" stroke="black" points="772.5,-231 492.5,-231 492.5,-178 772.5,-178 772.5,-231"/>
<text text-anchor="middle" x="632.5" y="-215.8" font-family="Times,serif" font-size="14.00">ID: 4</text>
<text text-anchor="middle" x="632.5" y="-200.8" font-family="Times,serif" font-size="14.00">Repuesto: Pastillas de freno traseras</text>
<text text-anchor="middle" x="632.5" y="-185.8" font-family="Times,serif" font-size="14.00">Costo: 45.3</text>
</g>
<!-- 8&#45;&gt;4 -->
<g id="edge1" class="edge">
<title>8&#45;&gt;4</title>
<path fill="none" stroke="black" d="M775.26,-266.98C752.03,-256.98 725.23,-245.44 701.16,-235.07"/>
<polygon fill="black" stroke="black" points="702.31,-231.76 691.74,-231.01 699.54,-238.18 702.31,-231.76"/>
</g>
<!-- 12 -->
<g id="node9" class="node">
<title>12</title>
<polygon fill="none" stroke="black" points="1184,-231 969,-231 969,-178 1184,-178 1184,-231"/>
<text text-anchor="middle" x="1076.5" y="-215.8" font-family="Times,serif" font-size="14.00">ID: 12</text>
<text text-anchor="middle" x="1076.5" y="-200.8" font-family="Times,serif" font-size="14.00">Repuesto: Espejos laterales</text>
<text text-anchor="middle" x="1076.5" y="-185.8" font-family="Times,serif" font-size="14.00">Costo: 50</text>
</g>
<!-- 8&#45;&gt;12 -->
<g id="edge8" class="edge">
<title>8&#45;&gt;12</title>
<path fill="none" stroke="black" d="M905.47,-266.98C933.79,-256.8 966.55,-245.03 995.77,-234.52"/>
<polygon fill="black" stroke="black" points="997.3,-237.69 1005.53,-231.01 994.93,-231.1 997.3,-237.69"/>
</g>
<!-- 2 -->
<g id="node3" class="node">
<title>2</title>
<polygon fill="none" stroke="black" points="399,-142 262,-142 262,-89 399,-89 399,-142"/>
<text text-anchor="middle" x="330.5" y="-126.8" font-family="Times,serif" font-size="14.00">ID: 2</text>
<text text-anchor="middle" x="330.5" y="-111.8" font-family="Times,serif" font-size="14.00">Repuesto: Bujías</text>
<text text-anchor="middle" x="330.5" y="-96.8" font-family="Times,serif" font-size="14.00">Costo: 15.75</text>
</g>
<!-- 4&#45;&gt;2 -->
<g id="edge2" class="edge">
<title>4&#45;&gt;2</title>
<path fill="none" stroke="black" d="M543.93,-177.98C501.23,-165.68 450.45,-151.05 409.13,-139.15"/>
<polygon fill="black" stroke="black" points="409.97,-135.75 399.39,-136.35 408.03,-142.48 409.97,-135.75"/>
</g>
<!-- 6 -->
<g id="node6" class="node">
<title>6</title>
<polygon fill="none" stroke="black" points="735.5,-142 529.5,-142 529.5,-89 735.5,-89 735.5,-142"/>
<text text-anchor="middle" x="632.5" y="-126.8" font-family="Times,serif" font-size="14.00">ID: 6</text>
<text text-anchor="middle" x="632.5" y="-111.8" font-family="Times,serif" font-size="14.00">Repuesto: Aceite de motor</text>
<text text-anchor="middle" x="632.5" y="-96.8" font-family="Times,serif" font-size="14.00">Costo: 18.6</text>
</g>
<!-- 4&#45;&gt;6 -->
<g id="edge5" class="edge">
<title>4&#45;&gt;6</title>
<path fill="none" stroke="black" d="M632.5,-177.87C632.5,-169.89 632.5,-160.93 632.5,-152.38"/>
<polygon fill="black" stroke="black" points="636,-152.25 632.5,-142.25 629,-152.25 636,-152.25"/>
</g>
<!-- 1 -->
<g id="node4" class="node">
<title>1</title>
<polygon fill="none" stroke="black" points="201,-53 0,-53 0,0 201,0 201,-53"/>
<text text-anchor="middle" x="100.5" y="-37.8" font-family="Times,serif" font-size="14.00">ID: 1</text>
<text text-anchor="middle" x="100.5" y="-22.8" font-family="Times,serif" font-size="14.00">Repuesto: Filtro de aceite</text>
<text text-anchor="middle" x="100.5" y="-7.8" font-family="Times,serif" font-size="14.00">Costo: 25.5</text>
</g>
<!-- 2&#45;&gt;1 -->
<g id="edge3" class="edge">
<title>2&#45;&gt;1</title>
<path fill="none" stroke="black" d="M263.05,-88.98C236.25,-78.85 205.27,-67.13 177.59,-56.66"/>
<polygon fill="black" stroke="black" points="178.54,-53.28 167.95,-53.01 176.07,-59.83 178.54,-53.28"/>
</g>
<!-- 3 -->
<g id="node5" class="node">
<title>3</title>
<polygon fill="none" stroke="black" points="441.5,-53 219.5,-53 219.5,0 441.5,0 441.5,-53"/>
<text text-anchor="middle" x="330.5" y="-37.8" font-family="Times,serif" font-size="14.00">ID: 3</text>
<text text-anchor="middle" x="330.5" y="-22.8" font-family="Times,serif" font-size="14.00">Repuesto: Frenos delanteros</text>
<text text-anchor="middle" x="330.5" y="-7.8" font-family="Times,serif" font-size="14.00">Costo: 60</text>
</g>
<!-- 2&#45;&gt;3 -->
<g id="edge4" class="edge">
<title>2&#45;&gt;3</title>
<path fill="none" stroke="black" d="M330.5,-88.87C330.5,-80.89 330.5,-71.93 330.5,-63.38"/>
<polygon fill="black" stroke="black" points="334,-63.25 330.5,-53.25 327,-63.25 334,-63.25"/>
</g>
<!-- 5 -->
<g id="node7" class="node">
<title>5</title>
<polygon fill="none" stroke="black" points="667,-53 460,-53 460,0 667,0 667,-53"/>
<text text-anchor="middle" x="563.5" y="-37.8" font-family="Times,serif" font-size="14.00">ID: 5</text>
<text text-anchor="middle" x="563.5" y="-22.8" font-family="Times,serif" font-size="14.00">Repuesto: Amortiguadores</text>
<text text-anchor="middle" x="563.5" y="-7.8" font-family="Times,serif" font-size="14.00">Costo: 95.2</text>
</g>
<!-- 6&#45;&gt;5 -->
<g id="edge6" class="edge">
<title>6&#45;&gt;5</title>
<path fill="none" stroke="black" d="M612.17,-88.87C605.28,-80.18 597.48,-70.35 590.18,-61.14"/>
<polygon fill="black" stroke="black" points="592.88,-58.91 583.92,-53.25 587.39,-63.26 592.88,-58.91"/>
</g>
<!-- 7 -->
<g id="node8" class="node">
<title>7</title>
<polygon fill="none" stroke="black" points="871.5,-53 685.5,-53 685.5,0 871.5,0 871.5,-53"/>
<text text-anchor="middle" x="778.5" y="-37.8" font-family="Times,serif" font-size="14.00">ID: 7</text>
<text text-anchor="middle" x="778.5" y="-22.8" font-family="Times,serif" font-size="14.00">Repuesto: Filtro de aire</text>
<text text-anchor="middle" x="778.5" y="-7.8" font-family="Times,serif" font-size="14.00">Costo: 22.1</text>
</g>
<!-- 6&#45;&gt;7 -->
<g id="edge7" class="edge">
<title>6&#45;&gt;7</title>
<path fill="none" stroke="black" d="M675.52,-88.87C691.63,-79.26 710.11,-68.25 726.92,-58.24"/>
<polygon fill="black" stroke="black" points="728.74,-61.23 735.54,-53.1 725.16,-55.21 728.74,-61.23"/>
</g>
<!-- 10 -->
<g id="node10" class="node">
<title>10</title>
<polygon fill="none" stroke="black" points="1149,-142 1004,-142 1004,-89 1149,-89 1149,-142"/>
<text text-anchor="middle" x="1076.5" y="-126.8" font-family="Times,serif" font-size="14.00">ID: 10</text>
<text text-anchor="middle" x="1076.5" y="-111.8" font-family="Times,serif" font-size="14.00">Repuesto: Batería</text>
<text text-anchor="middle" x="1076.5" y="-96.8" font-family="Times,serif" font-size="14.00">Costo: 100.5</text>
</g>
<!-- 12&#45;&gt;10 -->
<g id="edge9" class="edge">
<title>12&#45;&gt;10</title>
<path fill="none" stroke="black" d="M1076.5,-177.87C1076.5,-169.89 1076.5,-160.93 1076.5,-152.38"/>
<polygon fill="black" stroke="black" points="1080,-152.25 1076.5,-142.25 1073,-152.25 1080,-152.25"/>
</g>
<!-- 14 -->
<g id="node13" class="node">
<title>14</title>
<polygon fill="none" stroke="black" points="1563.5,-142 1333.5,-142 1333.5,-89 1563.5,-89 1563.5,-142"/>
<text text-anchor="middle" x="1448.5" y="-126.8" font-family="Times,serif" font-size="14.00">ID: 14</text>
<text text-anchor="middle" x="1448.5" y="-111.8" font-family="Times,serif" font-size="14.00">Repuesto: Suspensión trasera</text>
<text text-anchor="middle" x="1448.5" y="-96.8" font-family="Times,serif" font-size="14.00">Costo: 120</text>
</g>
<!-- 12&#45;&gt;14 -->
<g id="edge12" class="edge">
<title>12&#45;&gt;14</title>
<path fill="none" stroke="black" d="M1184.1,-178.34C1229.57,-167.7 1282.7,-155.28 1329.36,-144.36"/>
<polygon fill="black" stroke="black" points="1330.27,-147.75 1339.21,-142.06 1328.68,-140.93 1330.27,-147.75"/>
</g>
<!-- 9 -->
<g id="node11" class="node">
<title>9</title>
<polygon fill="none" stroke="black" points="1047,-53 890,-53 890,0 1047,0 1047,-53"/>
<text text-anchor="middle" x="968.5" y="-37.8" font-family="Times,serif" font-size="14.00">ID: 9</text>
<text text-anchor="middle" x="968.5" y="-22.8" font-family="Times,serif" font-size="14.00">Repuesto: Radiador</text>
<text text-anchor="middle" x="968.5" y="-7.8" font-family="Times,serif" font-size="14.00">Costo: 150</text>
</g>
<!-- 10&#45;&gt;9 -->
<g id="edge10" class="edge">
<title>10&#45;&gt;9</title>
<path fill="none" stroke="black" d="M1044.68,-88.87C1033.36,-79.75 1020.46,-69.35 1008.53,-59.75"/>
<polygon fill="black" stroke="black" points="1010.45,-56.8 1000.47,-53.25 1006.06,-62.25 1010.45,-56.8"/>
</g>
<!-- 11 -->
<g id="node12" class="node">
<title>11</title>
<polygon fill="none" stroke="black" points="1304,-53 1065,-53 1065,0 1304,0 1304,-53"/>
<text text-anchor="middle" x="1184.5" y="-37.8" font-family="Times,serif" font-size="14.00">ID: 11</text>
<text text-anchor="middle" x="1184.5" y="-22.8" font-family="Times,serif" font-size="14.00">Repuesto: Cables de encendido</text>
<text text-anchor="middle" x="1184.5" y="-7.8" font-family="Times,serif" font-size="14.00">Costo: 30.4</text>
</g>
<!-- 10&#45;&gt;11 -->
<g id="edge11" class="edge">
<title>10&#45;&gt;11</title>
<path fill="none" stroke="black" d="M1108.32,-88.87C1119.64,-79.75 1132.54,-69.35 1144.47,-59.75"/>
<polygon fill="black" stroke="black" points="1146.94,-62.25 1152.53,-53.25 1142.55,-56.8 1146.94,-62.25"/>
</g>
<!-- 13 -->
<g id="node14" class="node">
<title>13</title>
<polygon fill="none" stroke="black" points="1574.5,-53 1322.5,-53 1322.5,0 1574.5,0 1574.5,-53"/>
<text text-anchor="middle" x="1448.5" y="-37.8" font-family="Times,serif" font-size="14.00">ID: 13</text>
<text text-anchor="middle" x="1448.5" y="-22.8" font-family="Times,serif" font-size="14.00">Repuesto: Manguera de radiador</text>
<text text-anchor="middle" x="1448.5" y="-7.8" font-family="Times,serif" font-size="14.00">Costo: 20.8</text>
</g>
<!-- 14&#45;&gt;13 -->
<g id="edge13" class="edge">
<title>14&#45;&gt;13</title>
<path fill="none" stroke="black" d="M1448.5,-88.87C1448.5,-80.89 1448.5,-71.93 1448.5,-63.38"/>
<polygon fill="black" stroke="black" points="1452,-63.25 1448.5,-53.25 1445,-63.25 1452,-63.25"/>
</g>
<!-- 15 -->
<g id="node15" class="node">
<title>15</title>
<polygon fill="none" stroke="black" points="1806,-53 1593,-53 1593,0 1806,0 1806,-53"/>
<text text-anchor="middle" x="1699.5" y="-37.8" font-family="Times,serif" font-size="14.00">ID: 15</text>
<text text-anchor="middle" x="1699.5" y="-22.8" font-family="Times,serif" font-size="14.00">Repuesto: Bombas de freno</text>
<text text-anchor="middle" x="1699.5" y="-7.8" font-family="Times,serif" font-size="14.00">Costo: 75</text>
</g>
<!-- 14&#45;&gt;15 -->
<g id="edge14" class="edge">
<title>14&#45;&gt;15</title>
<path fill="none" stroke="black" d="M1522.11,-88.98C1551.61,-78.76 1585.75,-66.93 1616.16,-56.39"/>
<polygon fill="black" stroke="black" points="1617.59,-59.6 1625.89,-53.01 1615.29,-52.98 1617.59,-59.6"/>
</g>
</g>
</svg>
