<?xml version="1.0" encoding="UTF-8" standalone="no"?>
<!DOCTYPE svg PUBLIC "-//W3C//DTD SVG 1.1//EN"
 "http://www.w3.org/Graphics/SVG/1.1/DTD/svg11.dtd">
<!-- Generated by graphviz version 2.43.0 (0)
 -->
<!-- Title: G Pages: 1 -->
<svg width="1881pt" height="223pt"
 viewBox="0.00 0.00 1880.50 223.00" xmlns="http://www.w3.org/2000/svg" xmlns:xlink="http://www.w3.org/1999/xlink">
<g id="graph0" class="graph" transform="scale(1 1) rotate(0) translate(4 219)">
<title>G</title>
<polygon fill="white" stroke="transparent" points="-4,4 -4,-219 1876.5,-219 1876.5,4 -4,4"/>
<!-- node5894079 -->
<g id="node1" class="node">
<title>node5894079</title>
<polygon fill="lightgray" stroke="black" points="955,-178.5 955,-214.5 1563,-214.5 1563,-178.5 955,-178.5"/>
<text text-anchor="middle" x="1259" y="-192.8" font-family="Times,serif" font-size="14.00">Hash: f9376be35fb60209f261a5df41e34816f4b0955ea3239e941cc7f9008993031e</text>
</g>
<!-- node53046711 -->
<g id="node2" class="node">
<title>node53046711</title>
<polygon fill="lightgray" stroke="black" points="639,-105.5 639,-141.5 1253,-141.5 1253,-105.5 639,-105.5"/>
<text text-anchor="middle" x="946" y="-119.8" font-family="Times,serif" font-size="14.00">Hash: 7879acc2272dda1d6fc57eb5bb97f62d7c4b78a5405f5b06e8ea02d2ad58b5da</text>
</g>
<!-- node5894079&#45;&gt;node53046711 -->
<g id="edge1" class="edge">
<title>node5894079&#45;&gt;node53046711</title>
<path fill="none" stroke="black" d="M1184.03,-178.49C1138.02,-168.06 1078.96,-154.66 1031.19,-143.82"/>
<polygon fill="black" stroke="black" points="1031.7,-140.35 1021.17,-141.55 1030.15,-147.18 1031.7,-140.35"/>
</g>
<!-- node16347077 -->
<g id="node5" class="node">
<title>node16347077</title>
<polygon fill="lightgray" stroke="black" points="1271.5,-105.5 1271.5,-141.5 1872.5,-141.5 1872.5,-105.5 1271.5,-105.5"/>
<text text-anchor="middle" x="1572" y="-119.8" font-family="Times,serif" font-size="14.00">Hash: ef940fcd7d50695f200a7a0ea476078b5fd82c713cb4ffca72c50e10c982b5b6</text>
</g>
<!-- node5894079&#45;&gt;node16347077 -->
<g id="edge4" class="edge">
<title>node5894079&#45;&gt;node16347077</title>
<path fill="none" stroke="black" d="M1333.97,-178.49C1379.98,-168.06 1439.04,-154.66 1486.81,-143.82"/>
<polygon fill="black" stroke="black" points="1487.85,-147.18 1496.83,-141.55 1486.3,-140.35 1487.85,-147.18"/>
</g>
<!-- node7658356 -->
<g id="node3" class="node">
<title>node7658356</title>
<polygon fill="lightgray" stroke="black" points="0,-0.5 0,-68.5 618,-68.5 618,-0.5 0,-0.5"/>
<text text-anchor="middle" x="309" y="-53.3" font-family="Times,serif" font-size="14.00">ID: 1</text>
<text text-anchor="middle" x="309" y="-38.3" font-family="Times,serif" font-size="14.00">Servicio: 1</text>
<text text-anchor="middle" x="309" y="-23.3" font-family="Times,serif" font-size="14.00">Total: 452</text>
<text text-anchor="middle" x="309" y="-8.3" font-family="Times,serif" font-size="14.00">Hash: 96ab87ac4826e363f7e15a7478974fd0291c5012e32520b4f2dd511c5dd542d4</text>
</g>
<!-- node53046711&#45;&gt;node7658356 -->
<g id="edge2" class="edge">
<title>node53046711&#45;&gt;node7658356</title>
<path fill="none" stroke="black" d="M821.29,-105.47C747.1,-95.34 650.29,-82.11 560.82,-69.89"/>
<polygon fill="black" stroke="black" points="561.17,-66.41 550.79,-68.52 560.23,-73.34 561.17,-66.41"/>
</g>
<!-- node1816341 -->
<g id="node4" class="node">
<title>node1816341</title>
<polygon fill="lightgray" stroke="black" points="636,-0.5 636,-68.5 1256,-68.5 1256,-0.5 636,-0.5"/>
<text text-anchor="middle" x="946" y="-53.3" font-family="Times,serif" font-size="14.00">ID: 2</text>
<text text-anchor="middle" x="946" y="-38.3" font-family="Times,serif" font-size="14.00">Servicio: 2</text>
<text text-anchor="middle" x="946" y="-23.3" font-family="Times,serif" font-size="14.00">Total: 452</text>
<text text-anchor="middle" x="946" y="-8.3" font-family="Times,serif" font-size="14.00">Hash: 745358748c16863ba602099ec7770c1d7824e98908653f8ff15937b5202800b9</text>
</g>
<!-- node53046711&#45;&gt;node1816341 -->
<g id="edge3" class="edge">
<title>node53046711&#45;&gt;node1816341</title>
<path fill="none" stroke="black" d="M946,-105.31C946,-97.6 946,-88.13 946,-78.67"/>
<polygon fill="black" stroke="black" points="949.5,-78.5 946,-68.5 942.5,-78.5 949.5,-78.5"/>
</g>
<!-- node12905972 -->
<g id="node6" class="node">
<title>node12905972</title>
<polygon fill="lightgray" stroke="black" points="1274.5,-0.5 1274.5,-68.5 1869.5,-68.5 1869.5,-0.5 1274.5,-0.5"/>
<text text-anchor="middle" x="1572" y="-53.3" font-family="Times,serif" font-size="14.00">ID: 3</text>
<text text-anchor="middle" x="1572" y="-38.3" font-family="Times,serif" font-size="14.00">Servicio: 3</text>
<text text-anchor="middle" x="1572" y="-23.3" font-family="Times,serif" font-size="14.00">Total: 452</text>
<text text-anchor="middle" x="1572" y="-8.3" font-family="Times,serif" font-size="14.00">Hash: db822e8f72f1fec83034fb4f35046ff31a9622bdcc4bebe16c8955d14fac152e</text>
</g>
<!-- node16347077&#45;&gt;node12905972 -->
<g id="edge5" class="edge">
<title>node16347077&#45;&gt;node12905972</title>
<path fill="none" stroke="black" d="M1572,-105.31C1572,-97.6 1572,-88.13 1572,-78.67"/>
<polygon fill="black" stroke="black" points="1575.5,-78.5 1572,-68.5 1568.5,-78.5 1575.5,-78.5"/>
</g>
</g>
</svg>
