<?xml version="1.0" encoding="UTF-8" standalone="no"?>
<!DOCTYPE svg PUBLIC "-//W3C//DTD SVG 1.1//EN"
 "http://www.w3.org/Graphics/SVG/1.1/DTD/svg11.dtd">
<!-- Generated by graphviz version 2.43.0 (0)
 -->
<!-- Title: ArbolAVL Pages: 1 -->
<svg width="1748pt" height="328pt"
 viewBox="0.00 0.00 1748.00 328.00" xmlns="http://www.w3.org/2000/svg" xmlns:xlink="http://www.w3.org/1999/xlink">
<g id="graph0" class="graph" transform="scale(1 1) rotate(0) translate(4 324)">
<title>ArbolAVL</title>
<polygon fill="white" stroke="transparent" points="-4,4 -4,-324 1744,-324 1744,4 -4,4"/>
<!-- 8 -->
<g id="node1" class="node">
<title>8</title>
<polygon fill="none" stroke="black" points="895,-320 642,-320 642,-267 895,-267 895,-320"/>
<text text-anchor="middle" x="768.5" y="-304.8" font-family="Times,serif" font-size="14.00">ID: 8</text>
<text text-anchor="middle" x="768.5" y="-289.8" font-family="Times,serif" font-size="14.00">Repuesto: Correa de distribución</text>
<text text-anchor="middle" x="768.5" y="-274.8" font-family="Times,serif" font-size="14.00">Costo: 80</text>
</g>
<!-- 4 -->
<g id="node2" class="node">
<title>4</title>
<polygon fill="none" stroke="black" points="706.5,-231 426.5,-231 426.5,-178 706.5,-178 706.5,-231"/>
<text text-anchor="middle" x="566.5" y="-215.8" font-family="Times,serif" font-size="14.00">ID: 4</text>
<text text-anchor="middle" x="566.5" y="-200.8" font-family="Times,serif" font-size="14.00">Repuesto: Pastillas de freno traseras</text>
<text text-anchor="middle" x="566.5" y="-185.8" font-family="Times,serif" font-size="14.00">Costo: 45.3</text>
</g>
<!-- 8&#45;&gt;4 -->
<g id="edge1" class="edge">
<title>8&#45;&gt;4</title>
<path fill="none" stroke="black" d="M709.26,-266.98C686.03,-256.98 659.23,-245.44 635.16,-235.07"/>
<polygon fill="black" stroke="black" points="636.31,-231.76 625.74,-231.01 633.54,-238.18 636.31,-231.76"/>
</g>
<!-- 12 -->
<g id="node9" class="node">
<title>12</title>
<polygon fill="none" stroke="black" points="1118,-231 903,-231 903,-178 1118,-178 1118,-231"/>
<text text-anchor="middle" x="1010.5" y="-215.8" font-family="Times,serif" font-size="14.00">ID: 12</text>
<text text-anchor="middle" x="1010.5" y="-200.8" font-family="Times,serif" font-size="14.00">Repuesto: Espejos laterales</text>
<text text-anchor="middle" x="1010.5" y="-185.8" font-family="Times,serif" font-size="14.00">Costo: 50</text>
</g>
<!-- 8&#45;&gt;12 -->
<g id="edge8" class="edge">
<title>8&#45;&gt;12</title>
<path fill="none" stroke="black" d="M839.47,-266.98C867.79,-256.8 900.55,-245.03 929.77,-234.52"/>
<polygon fill="black" stroke="black" points="931.3,-237.69 939.53,-231.01 928.93,-231.1 931.3,-237.69"/>
</g>
<!-- 2 -->
<g id="node3" class="node">
<title>2</title>
<polygon fill="none" stroke="black" points="333,-142 196,-142 196,-89 333,-89 333,-142"/>
<text text-anchor="middle" x="264.5" y="-126.8" font-family="Times,serif" font-size="14.00">ID: 2</text>
<text text-anchor="middle" x="264.5" y="-111.8" font-family="Times,serif" font-size="14.00">Repuesto: Bujías</text>
<text text-anchor="middle" x="264.5" y="-96.8" font-family="Times,serif" font-size="14.00">Costo: 15.75</text>
</g>
<!-- 4&#45;&gt;2 -->
<g id="edge2" class="edge">
<title>4&#45;&gt;2</title>
<path fill="none" stroke="black" d="M477.93,-177.98C435.23,-165.68 384.45,-151.05 343.13,-139.15"/>
<polygon fill="black" stroke="black" points="343.97,-135.75 333.39,-136.35 342.03,-142.48 343.97,-135.75"/>
</g>
<!-- 6 -->
<g id="node6" class="node">
<title>6</title>
<polygon fill="none" stroke="black" points="669.5,-142 463.5,-142 463.5,-89 669.5,-89 669.5,-142"/>
<text text-anchor="middle" x="566.5" y="-126.8" font-family="Times,serif" font-size="14.00">ID: 6</text>
<text text-anchor="middle" x="566.5" y="-111.8" font-family="Times,serif" font-size="14.00">Repuesto: Aceite de motor</text>
<text text-anchor="middle" x="566.5" y="-96.8" font-family="Times,serif" font-size="14.00">Costo: 18.6</text>
</g>
<!-- 4&#45;&gt;6 -->
<g id="edge5" class="edge">
<title>4&#45;&gt;6</title>
<path fill="none" stroke="black" d="M566.5,-177.87C566.5,-169.89 566.5,-160.93 566.5,-152.38"/>
<polygon fill="black" stroke="black" points="570,-152.25 566.5,-142.25 563,-152.25 570,-152.25"/>
</g>
<!-- 1 -->
<g id="node4" class="node">
<title>1</title>
<polygon fill="none" stroke="black" points="135,-53 0,-53 0,0 135,0 135,-53"/>
<text text-anchor="middle" x="67.5" y="-37.8" font-family="Times,serif" font-size="14.00">ID: 1</text>
<text text-anchor="middle" x="67.5" y="-22.8" font-family="Times,serif" font-size="14.00">Repuesto: motor</text>
<text text-anchor="middle" x="67.5" y="-7.8" font-family="Times,serif" font-size="14.00">Costo: 25.5</text>
</g>
<!-- 2&#45;&gt;1 -->
<g id="edge3" class="edge">
<title>2&#45;&gt;1</title>
<path fill="none" stroke="black" d="M206.72,-88.98C184.07,-78.98 157.93,-67.44 134.46,-57.07"/>
<polygon fill="black" stroke="black" points="135.84,-53.85 125.27,-53.01 133.01,-60.26 135.84,-53.85"/>
</g>
<!-- 3 -->
<g id="node5" class="node">
<title>3</title>
<polygon fill="none" stroke="black" points="375.5,-53 153.5,-53 153.5,0 375.5,0 375.5,-53"/>
<text text-anchor="middle" x="264.5" y="-37.8" font-family="Times,serif" font-size="14.00">ID: 3</text>
<text text-anchor="middle" x="264.5" y="-22.8" font-family="Times,serif" font-size="14.00">Repuesto: Frenos delanteros</text>
<text text-anchor="middle" x="264.5" y="-7.8" font-family="Times,serif" font-size="14.00">Costo: 60</text>
</g>
<!-- 2&#45;&gt;3 -->
<g id="edge4" class="edge">
<title>2&#45;&gt;3</title>
<path fill="none" stroke="black" d="M264.5,-88.87C264.5,-80.89 264.5,-71.93 264.5,-63.38"/>
<polygon fill="black" stroke="black" points="268,-63.25 264.5,-53.25 261,-63.25 268,-63.25"/>
</g>
<!-- 5 -->
<g id="node7" class="node">
<title>5</title>
<polygon fill="none" stroke="black" points="601,-53 394,-53 394,0 601,0 601,-53"/>
<text text-anchor="middle" x="497.5" y="-37.8" font-family="Times,serif" font-size="14.00">ID: 5</text>
<text text-anchor="middle" x="497.5" y="-22.8" font-family="Times,serif" font-size="14.00">Repuesto: Amortiguadores</text>
<text text-anchor="middle" x="497.5" y="-7.8" font-family="Times,serif" font-size="14.00">Costo: 95.2</text>
</g>
<!-- 6&#45;&gt;5 -->
<g id="edge6" class="edge">
<title>6&#45;&gt;5</title>
<path fill="none" stroke="black" d="M546.17,-88.87C539.28,-80.18 531.48,-70.35 524.18,-61.14"/>
<polygon fill="black" stroke="black" points="526.88,-58.91 517.92,-53.25 521.39,-63.26 526.88,-58.91"/>
</g>
<!-- 7 -->
<g id="node8" class="node">
<title>7</title>
<polygon fill="none" stroke="black" points="805.5,-53 619.5,-53 619.5,0 805.5,0 805.5,-53"/>
<text text-anchor="middle" x="712.5" y="-37.8" font-family="Times,serif" font-size="14.00">ID: 7</text>
<text text-anchor="middle" x="712.5" y="-22.8" font-family="Times,serif" font-size="14.00">Repuesto: Filtro de aire</text>
<text text-anchor="middle" x="712.5" y="-7.8" font-family="Times,serif" font-size="14.00">Costo: 22.1</text>
</g>
<!-- 6&#45;&gt;7 -->
<g id="edge7" class="edge">
<title>6&#45;&gt;7</title>
<path fill="none" stroke="black" d="M609.52,-88.87C625.63,-79.26 644.11,-68.25 660.92,-58.24"/>
<polygon fill="black" stroke="black" points="662.74,-61.23 669.54,-53.1 659.16,-55.21 662.74,-61.23"/>
</g>
<!-- 10 -->
<g id="node10" class="node">
<title>10</title>
<polygon fill="none" stroke="black" points="1083,-142 938,-142 938,-89 1083,-89 1083,-142"/>
<text text-anchor="middle" x="1010.5" y="-126.8" font-family="Times,serif" font-size="14.00">ID: 10</text>
<text text-anchor="middle" x="1010.5" y="-111.8" font-family="Times,serif" font-size="14.00">Repuesto: Batería</text>
<text text-anchor="middle" x="1010.5" y="-96.8" font-family="Times,serif" font-size="14.00">Costo: 100.5</text>
</g>
<!-- 12&#45;&gt;10 -->
<g id="edge9" class="edge">
<title>12&#45;&gt;10</title>
<path fill="none" stroke="black" d="M1010.5,-177.87C1010.5,-169.89 1010.5,-160.93 1010.5,-152.38"/>
<polygon fill="black" stroke="black" points="1014,-152.25 1010.5,-142.25 1007,-152.25 1014,-152.25"/>
</g>
<!-- 14 -->
<g id="node13" class="node">
<title>14</title>
<polygon fill="none" stroke="black" points="1497.5,-142 1267.5,-142 1267.5,-89 1497.5,-89 1497.5,-142"/>
<text text-anchor="middle" x="1382.5" y="-126.8" font-family="Times,serif" font-size="14.00">ID: 14</text>
<text text-anchor="middle" x="1382.5" y="-111.8" font-family="Times,serif" font-size="14.00">Repuesto: Suspensión trasera</text>
<text text-anchor="middle" x="1382.5" y="-96.8" font-family="Times,serif" font-size="14.00">Costo: 120</text>
</g>
<!-- 12&#45;&gt;14 -->
<g id="edge12" class="edge">
<title>12&#45;&gt;14</title>
<path fill="none" stroke="black" d="M1118.1,-178.34C1163.57,-167.7 1216.7,-155.28 1263.36,-144.36"/>
<polygon fill="black" stroke="black" points="1264.27,-147.75 1273.21,-142.06 1262.68,-140.93 1264.27,-147.75"/>
</g>
<!-- 9 -->
<g id="node11" class="node">
<title>9</title>
<polygon fill="none" stroke="black" points="981,-53 824,-53 824,0 981,0 981,-53"/>
<text text-anchor="middle" x="902.5" y="-37.8" font-family="Times,serif" font-size="14.00">ID: 9</text>
<text text-anchor="middle" x="902.5" y="-22.8" font-family="Times,serif" font-size="14.00">Repuesto: Radiador</text>
<text text-anchor="middle" x="902.5" y="-7.8" font-family="Times,serif" font-size="14.00">Costo: 150</text>
</g>
<!-- 10&#45;&gt;9 -->
<g id="edge10" class="edge">
<title>10&#45;&gt;9</title>
<path fill="none" stroke="black" d="M978.68,-88.87C967.36,-79.75 954.46,-69.35 942.53,-59.75"/>
<polygon fill="black" stroke="black" points="944.45,-56.8 934.47,-53.25 940.06,-62.25 944.45,-56.8"/>
</g>
<!-- 11 -->
<g id="node12" class="node">
<title>11</title>
<polygon fill="none" stroke="black" points="1238,-53 999,-53 999,0 1238,0 1238,-53"/>
<text text-anchor="middle" x="1118.5" y="-37.8" font-family="Times,serif" font-size="14.00">ID: 11</text>
<text text-anchor="middle" x="1118.5" y="-22.8" font-family="Times,serif" font-size="14.00">Repuesto: Cables de encendido</text>
<text text-anchor="middle" x="1118.5" y="-7.8" font-family="Times,serif" font-size="14.00">Costo: 30.4</text>
</g>
<!-- 10&#45;&gt;11 -->
<g id="edge11" class="edge">
<title>10&#45;&gt;11</title>
<path fill="none" stroke="black" d="M1042.32,-88.87C1053.64,-79.75 1066.54,-69.35 1078.47,-59.75"/>
<polygon fill="black" stroke="black" points="1080.94,-62.25 1086.53,-53.25 1076.55,-56.8 1080.94,-62.25"/>
</g>
<!-- 13 -->
<g id="node14" class="node">
<title>13</title>
<polygon fill="none" stroke="black" points="1508.5,-53 1256.5,-53 1256.5,0 1508.5,0 1508.5,-53"/>
<text text-anchor="middle" x="1382.5" y="-37.8" font-family="Times,serif" font-size="14.00">ID: 13</text>
<text text-anchor="middle" x="1382.5" y="-22.8" font-family="Times,serif" font-size="14.00">Repuesto: Manguera de radiador</text>
<text text-anchor="middle" x="1382.5" y="-7.8" font-family="Times,serif" font-size="14.00">Costo: 20.8</text>
</g>
<!-- 14&#45;&gt;13 -->
<g id="edge13" class="edge">
<title>14&#45;&gt;13</title>
<path fill="none" stroke="black" d="M1382.5,-88.87C1382.5,-80.89 1382.5,-71.93 1382.5,-63.38"/>
<polygon fill="black" stroke="black" points="1386,-63.25 1382.5,-53.25 1379,-63.25 1386,-63.25"/>
</g>
<!-- 15 -->
<g id="node15" class="node">
<title>15</title>
<polygon fill="none" stroke="black" points="1740,-53 1527,-53 1527,0 1740,0 1740,-53"/>
<text text-anchor="middle" x="1633.5" y="-37.8" font-family="Times,serif" font-size="14.00">ID: 15</text>
<text text-anchor="middle" x="1633.5" y="-22.8" font-family="Times,serif" font-size="14.00">Repuesto: Bombas de freno</text>
<text text-anchor="middle" x="1633.5" y="-7.8" font-family="Times,serif" font-size="14.00">Costo: 75</text>
</g>
<!-- 14&#45;&gt;15 -->
<g id="edge14" class="edge">
<title>14&#45;&gt;15</title>
<path fill="none" stroke="black" d="M1456.11,-88.98C1485.61,-78.76 1519.75,-66.93 1550.16,-56.39"/>
<polygon fill="black" stroke="black" points="1551.59,-59.6 1559.89,-53.01 1549.29,-52.98 1551.59,-59.6"/>
</g>
</g>
</svg>
