<?xml version="1.0" encoding="UTF-8" standalone="no"?>
<!DOCTYPE svg PUBLIC "-//W3C//DTD SVG 1.1//EN"
 "http://www.w3.org/Graphics/SVG/1.1/DTD/svg11.dtd">
<!-- Generated by graphviz version 2.43.0 (0)
 -->
<!-- Title: G Pages: 1 -->
<svg width="232pt" height="284pt"
 viewBox="0.00 0.00 232.00 284.00" xmlns="http://www.w3.org/2000/svg" xmlns:xlink="http://www.w3.org/1999/xlink">
<g id="graph0" class="graph" transform="scale(1 1) rotate(0) translate(4 280)">
<title>G</title>
<polygon fill="white" stroke="transparent" points="-4,4 -4,-280 228,-280 228,4 -4,4"/>
<!-- 1 -->
<g id="node1" class="node">
<title>1</title>
<polygon fill="none" stroke="black" points="224,-276 0,-276 0,-208 224,-208 224,-276"/>
<text text-anchor="middle" x="112" y="-260.8" font-family="Times,serif" font-size="14.00">ID: 1</text>
<text text-anchor="middle" x="112" y="-245.8" font-family="Times,serif" font-size="14.00"> Vehiculo: 452 || Repuesto: 4 </text>
<text text-anchor="middle" x="112" y="-230.8" font-family="Times,serif" font-size="14.00"> &#160;452</text>
<text text-anchor="middle" x="112" y="-215.8" font-family="Times,serif" font-size="14.00"> Costos: 452</text>
</g>
<!-- 2 -->
<g id="node2" class="node">
<title>2</title>
<polygon fill="none" stroke="black" points="215,-172 9,-172 9,-104 215,-104 215,-172"/>
<text text-anchor="middle" x="112" y="-156.8" font-family="Times,serif" font-size="14.00">ID: 2</text>
<text text-anchor="middle" x="112" y="-141.8" font-family="Times,serif" font-size="14.00"> Vehiculo: 2 || Repuesto: 2 </text>
<text text-anchor="middle" x="112" y="-126.8" font-family="Times,serif" font-size="14.00"> &#160;452</text>
<text text-anchor="middle" x="112" y="-111.8" font-family="Times,serif" font-size="14.00"> Costos: 452</text>
</g>
<!-- 1&#45;&gt;2 -->
<g id="edge1" class="edge">
<title>1&#45;&gt;2</title>
<path fill="none" stroke="black" d="M112,-207.88C112,-199.78 112,-190.98 112,-182.47"/>
<polygon fill="black" stroke="black" points="115.5,-182.3 112,-172.3 108.5,-182.3 115.5,-182.3"/>
</g>
<!-- 3 -->
<g id="node3" class="node">
<title>3</title>
<polygon fill="none" stroke="black" points="215,-68 9,-68 9,0 215,0 215,-68"/>
<text text-anchor="middle" x="112" y="-52.8" font-family="Times,serif" font-size="14.00">ID: 3</text>
<text text-anchor="middle" x="112" y="-37.8" font-family="Times,serif" font-size="14.00"> Vehiculo: 3 || Repuesto: 3 </text>
<text text-anchor="middle" x="112" y="-22.8" font-family="Times,serif" font-size="14.00"> &#160;452</text>
<text text-anchor="middle" x="112" y="-7.8" font-family="Times,serif" font-size="14.00"> Costos: 452</text>
</g>
<!-- 2&#45;&gt;3 -->
<g id="edge2" class="edge">
<title>2&#45;&gt;3</title>
<path fill="none" stroke="black" d="M112,-103.88C112,-95.78 112,-86.98 112,-78.47"/>
<polygon fill="black" stroke="black" points="115.5,-78.3 112,-68.3 108.5,-78.3 115.5,-78.3"/>
</g>
</g>
</svg>
