<?xml version="1.0" encoding="UTF-8" standalone="no"?>
<!DOCTYPE svg PUBLIC "-//W3C//DTD SVG 1.1//EN"
 "http://www.w3.org/Graphics/SVG/1.1/DTD/svg11.dtd">
<!-- Generated by graphviz version 2.43.0 (0)
 -->
<!-- Title: G Pages: 1 -->
<svg width="1206pt" height="118pt"
 viewBox="0.00 0.00 1206.00 118.00" xmlns="http://www.w3.org/2000/svg" xmlns:xlink="http://www.w3.org/1999/xlink">
<g id="graph0" class="graph" transform="scale(1 1) rotate(0) translate(4 114)">
<title>G</title>
<polygon fill="white" stroke="transparent" points="-4,4 -4,-114 1202,-114 1202,4 -4,4"/>
<!-- 47891719 -->
<g id="node1" class="node">
<title>47891719</title>
<polygon fill="none" stroke="black" points="304,-73.5 304,-109.5 599,-109.5 599,-73.5 304,-73.5"/>
<text text-anchor="middle" x="314.5" y="-87.8" font-family="Times,serif" font-size="14.00"> </text>
<polyline fill="none" stroke="black" points="325,-73.5 325,-109.5 "/>
<text text-anchor="middle" x="351.5" y="-87.8" font-family="Times,serif" font-size="14.00">Id: 2,</text>
<polyline fill="none" stroke="black" points="378,-73.5 378,-109.5 "/>
<text text-anchor="middle" x="478" y="-87.8" font-family="Times,serif" font-size="14.00">Id Servicio: 25, Total: 456</text>
<polyline fill="none" stroke="black" points="578,-73.5 578,-109.5 "/>
<text text-anchor="middle" x="588.5" y="-87.8" font-family="Times,serif" font-size="14.00"> </text>
</g>
<!-- 28372289 -->
<g id="node2" class="node">
<title>28372289</title>
<polygon fill="none" stroke="black" points="0,-0.5 0,-36.5 295,-36.5 295,-0.5 0,-0.5"/>
<text text-anchor="middle" x="10.5" y="-14.8" font-family="Times,serif" font-size="14.00"> </text>
<polyline fill="none" stroke="black" points="21,-0.5 21,-36.5 "/>
<text text-anchor="middle" x="47.5" y="-14.8" font-family="Times,serif" font-size="14.00">Id: 1,</text>
<polyline fill="none" stroke="black" points="74,-0.5 74,-36.5 "/>
<text text-anchor="middle" x="174" y="-14.8" font-family="Times,serif" font-size="14.00">Id Servicio: 50, Total: 456</text>
<polyline fill="none" stroke="black" points="274,-0.5 274,-36.5 "/>
<text text-anchor="middle" x="284.5" y="-14.8" font-family="Times,serif" font-size="14.00"> </text>
</g>
<!-- 47891719&#45;&gt;28372289 -->
<g id="edge1" class="edge">
<title>47891719&#45;&gt;28372289</title>
<path fill="none" stroke="black" d="M378.68,-73.49C334.09,-63.08 276.88,-49.72 230.53,-38.89"/>
<polygon fill="black" stroke="black" points="231.05,-35.42 220.51,-36.55 229.45,-42.23 231.05,-35.42"/>
</g>
<!-- 54024015 -->
<g id="node3" class="node">
<title>54024015</title>
<polygon fill="none" stroke="black" points="313,-0.5 313,-36.5 1198,-36.5 1198,-0.5 313,-0.5"/>
<text text-anchor="middle" x="323.5" y="-14.8" font-family="Times,serif" font-size="14.00"> </text>
<polyline fill="none" stroke="black" points="334,-0.5 334,-36.5 "/>
<text text-anchor="middle" x="360.5" y="-14.8" font-family="Times,serif" font-size="14.00">Id: 3,</text>
<polyline fill="none" stroke="black" points="387,-0.5 387,-36.5 "/>
<text text-anchor="middle" x="487" y="-14.8" font-family="Times,serif" font-size="14.00">Id Servicio: 30, Total: 456</text>
<polyline fill="none" stroke="black" points="587,-0.5 587,-36.5 "/>
<text text-anchor="middle" x="597.5" y="-14.8" font-family="Times,serif" font-size="14.00"> </text>
<polyline fill="none" stroke="black" points="608,-0.5 608,-36.5 "/>
<text text-anchor="middle" x="618.5" y="-14.8" font-family="Times,serif" font-size="14.00"> </text>
<polyline fill="none" stroke="black" points="629,-0.5 629,-36.5 "/>
<text text-anchor="middle" x="655.5" y="-14.8" font-family="Times,serif" font-size="14.00">Id: 4,</text>
<polyline fill="none" stroke="black" points="682,-0.5 682,-36.5 "/>
<text text-anchor="middle" x="782" y="-14.8" font-family="Times,serif" font-size="14.00">Id Servicio: 16, Total: 456</text>
<polyline fill="none" stroke="black" points="882,-0.5 882,-36.5 "/>
<text text-anchor="middle" x="892.5" y="-14.8" font-family="Times,serif" font-size="14.00"> </text>
<polyline fill="none" stroke="black" points="903,-0.5 903,-36.5 "/>
<text text-anchor="middle" x="913.5" y="-14.8" font-family="Times,serif" font-size="14.00"> </text>
<polyline fill="none" stroke="black" points="924,-0.5 924,-36.5 "/>
<text text-anchor="middle" x="950.5" y="-14.8" font-family="Times,serif" font-size="14.00">Id: 5,</text>
<polyline fill="none" stroke="black" points="977,-0.5 977,-36.5 "/>
<text text-anchor="middle" x="1077" y="-14.8" font-family="Times,serif" font-size="14.00">Id Servicio: 60, Total: 456</text>
<polyline fill="none" stroke="black" points="1177,-0.5 1177,-36.5 "/>
<text text-anchor="middle" x="1187.5" y="-14.8" font-family="Times,serif" font-size="14.00"> </text>
</g>
<!-- 47891719&#45;&gt;54024015 -->
<g id="edge2" class="edge">
<title>47891719&#45;&gt;54024015</title>
<path fill="none" stroke="black" d="M524.32,-73.49C568.91,-63.08 626.12,-49.72 672.47,-38.89"/>
<polygon fill="black" stroke="black" points="673.55,-42.23 682.49,-36.55 671.95,-35.42 673.55,-42.23"/>
</g>
</g>
</svg>
