<?xml version="1.0" encoding="UTF-8" standalone="no"?>
<!DOCTYPE svg PUBLIC "-//W3C//DTD SVG 1.1//EN"
 "http://www.w3.org/Graphics/SVG/1.1/DTD/svg11.dtd">
<!-- Generated by graphviz version 2.43.0 (0)
 -->
<!-- Title: G Pages: 1 -->
<svg width="557pt" height="284pt"
 viewBox="0.00 0.00 557.00 284.00" xmlns="http://www.w3.org/2000/svg" xmlns:xlink="http://www.w3.org/1999/xlink">
<g id="graph0" class="graph" transform="scale(1 1) rotate(0) translate(4 280)">
<title>G</title>
<polygon fill="white" stroke="transparent" points="-4,4 -4,-280 553,-280 553,4 -4,4"/>
<!-- 50 -->
<g id="node1" class="node">
<title>50</title>
<polygon fill="none" stroke="black" points="438.5,-276 223.5,-276 223.5,-208 438.5,-208 438.5,-276"/>
<text text-anchor="middle" x="331" y="-260.8" font-family="Times,serif" font-size="14.00">ID: 50</text>
<text text-anchor="middle" x="331" y="-245.8" font-family="Times,serif" font-size="14.00"> Vehiculo: 4 || Repuesto: 43 </text>
<text text-anchor="middle" x="331" y="-230.8" font-family="Times,serif" font-size="14.00"> &#160;546</text>
<text text-anchor="middle" x="331" y="-215.8" font-family="Times,serif" font-size="14.00"> Costos: 456</text>
</g>
<!-- 25 -->
<g id="node2" class="node">
<title>25</title>
<polygon fill="none" stroke="black" points="324.5,-172 109.5,-172 109.5,-104 324.5,-104 324.5,-172"/>
<text text-anchor="middle" x="217" y="-156.8" font-family="Times,serif" font-size="14.00">ID: 25</text>
<text text-anchor="middle" x="217" y="-141.8" font-family="Times,serif" font-size="14.00"> Vehiculo: 4 || Repuesto: 43 </text>
<text text-anchor="middle" x="217" y="-126.8" font-family="Times,serif" font-size="14.00"> &#160;546</text>
<text text-anchor="middle" x="217" y="-111.8" font-family="Times,serif" font-size="14.00"> Costos: 456</text>
</g>
<!-- 50&#45;&gt;25 -->
<g id="edge1" class="edge">
<title>50&#45;&gt;25</title>
<path fill="none" stroke="black" d="M293.99,-207.88C283.73,-198.71 272.49,-188.65 261.84,-179.12"/>
<polygon fill="black" stroke="black" points="264,-176.36 254.22,-172.3 259.34,-181.58 264,-176.36"/>
</g>
<!-- 60 -->
<g id="node5" class="node">
<title>60</title>
<polygon fill="none" stroke="black" points="549,-172 343,-172 343,-104 549,-104 549,-172"/>
<text text-anchor="middle" x="446" y="-156.8" font-family="Times,serif" font-size="14.00">ID: 60</text>
<text text-anchor="middle" x="446" y="-141.8" font-family="Times,serif" font-size="14.00"> Vehiculo: 4 || Repuesto: 2 </text>
<text text-anchor="middle" x="446" y="-126.8" font-family="Times,serif" font-size="14.00"> &#160;546</text>
<text text-anchor="middle" x="446" y="-111.8" font-family="Times,serif" font-size="14.00"> Costos: 456</text>
</g>
<!-- 50&#45;&gt;60 -->
<g id="edge4" class="edge">
<title>50&#45;&gt;60</title>
<path fill="none" stroke="black" d="M368.34,-207.88C378.68,-198.71 390.02,-188.65 400.76,-179.12"/>
<polygon fill="black" stroke="black" points="403.3,-181.55 408.46,-172.3 398.65,-176.32 403.3,-181.55"/>
</g>
<!-- 16 -->
<g id="node3" class="node">
<title>16</title>
<polygon fill="none" stroke="black" points="206,-68 0,-68 0,0 206,0 206,-68"/>
<text text-anchor="middle" x="103" y="-52.8" font-family="Times,serif" font-size="14.00">ID: 16</text>
<text text-anchor="middle" x="103" y="-37.8" font-family="Times,serif" font-size="14.00"> Vehiculo: 4 || Repuesto: 2 </text>
<text text-anchor="middle" x="103" y="-22.8" font-family="Times,serif" font-size="14.00"> &#160;546</text>
<text text-anchor="middle" x="103" y="-7.8" font-family="Times,serif" font-size="14.00"> Costos: 456</text>
</g>
<!-- 25&#45;&gt;16 -->
<g id="edge2" class="edge">
<title>25&#45;&gt;16</title>
<path fill="none" stroke="black" d="M179.99,-103.88C169.73,-94.71 158.49,-84.65 147.84,-75.12"/>
<polygon fill="black" stroke="black" points="150,-72.36 140.22,-68.3 145.34,-77.58 150,-72.36"/>
</g>
<!-- 30 -->
<g id="node4" class="node">
<title>30</title>
<polygon fill="none" stroke="black" points="439.5,-68 224.5,-68 224.5,0 439.5,0 439.5,-68"/>
<text text-anchor="middle" x="332" y="-52.8" font-family="Times,serif" font-size="14.00">ID: 30</text>
<text text-anchor="middle" x="332" y="-37.8" font-family="Times,serif" font-size="14.00"> Vehiculo: 4 || Repuesto: 43 </text>
<text text-anchor="middle" x="332" y="-22.8" font-family="Times,serif" font-size="14.00"> &#160;546</text>
<text text-anchor="middle" x="332" y="-7.8" font-family="Times,serif" font-size="14.00"> Costos: 456</text>
</g>
<!-- 25&#45;&gt;30 -->
<g id="edge3" class="edge">
<title>25&#45;&gt;30</title>
<path fill="none" stroke="black" d="M254.34,-103.88C264.68,-94.71 276.02,-84.65 286.76,-75.12"/>
<polygon fill="black" stroke="black" points="289.3,-77.55 294.46,-68.3 284.65,-72.32 289.3,-77.55"/>
</g>
</g>
</svg>
