<?xml version="1.0" encoding="UTF-8" standalone="no"?>
<!DOCTYPE svg PUBLIC "-//W3C//DTD SVG 1.1//EN"
 "http://www.w3.org/Graphics/SVG/1.1/DTD/svg11.dtd">
<!-- Generated by graphviz version 2.43.0 (0)
 -->
<!-- Title: MerkleTree Pages: 1 -->
<svg width="480pt" height="190pt"
 viewBox="0.00 0.00 480.00 190.00" xmlns="http://www.w3.org/2000/svg" xmlns:xlink="http://www.w3.org/1999/xlink">
<g id="graph0" class="graph" transform="scale(1 1) rotate(0) translate(4 186)">
<title>MerkleTree</title>
<polygon fill="white" stroke="transparent" points="-4,4 -4,-186 476,-186 476,4 -4,4"/>
<!-- nodo0 -->
<g id="node1" class="node">
<title>nodo0</title>
<polygon fill="none" stroke="black" points="389,-182 243,-182 243,-146 389,-146 389,-182"/>
<text text-anchor="middle" x="316" y="-160.3" font-family="Times,serif" font-size="14.00">Hash: 30eb8a3d...</text>
</g>
<!-- nodo1 -->
<g id="node2" class="node">
<title>nodo1</title>
<polygon fill="none" stroke="black" points="305.5,-110 164.5,-110 164.5,-74 305.5,-74 305.5,-110"/>
<text text-anchor="middle" x="235" y="-88.3" font-family="Times,serif" font-size="14.00">Hash: 3a47b9cf...</text>
</g>
<!-- nodo1&#45;&gt;nodo0 -->
<g id="edge3" class="edge">
<title>nodo1&#45;&gt;nodo0</title>
<path fill="none" stroke="black" d="M255.02,-110.3C265.13,-119.03 277.54,-129.76 288.52,-139.25"/>
<polygon fill="black" stroke="black" points="286.35,-142.01 296.21,-145.9 290.93,-136.71 286.35,-142.01"/>
</g>
<!-- nodo2 -->
<g id="node3" class="node">
<title>nodo2</title>
<polygon fill="none" stroke="black" points="144,-38 0,-38 0,0 144,0 144,-38"/>
<text text-anchor="middle" x="72" y="-22.8" font-family="Times,serif" font-size="14.00">Factura ID: 1</text>
<text text-anchor="middle" x="72" y="-7.8" font-family="Times,serif" font-size="14.00">Hash: f3d02462...</text>
</g>
<!-- nodo2&#45;&gt;nodo1 -->
<g id="edge1" class="edge">
<title>nodo2&#45;&gt;nodo1</title>
<path fill="none" stroke="black" d="M113.55,-38.1C135.77,-47.78 163.25,-59.75 186.45,-69.85"/>
<polygon fill="black" stroke="black" points="185.2,-73.13 195.77,-73.91 188,-66.71 185.2,-73.13"/>
</g>
<!-- nodo3 -->
<g id="node4" class="node">
<title>nodo3</title>
<polygon fill="none" stroke="black" points="308,-38 162,-38 162,0 308,0 308,-38"/>
<text text-anchor="middle" x="235" y="-22.8" font-family="Times,serif" font-size="14.00">Factura ID: 2</text>
<text text-anchor="middle" x="235" y="-7.8" font-family="Times,serif" font-size="14.00">Hash: c7891de6...</text>
</g>
<!-- nodo3&#45;&gt;nodo1 -->
<g id="edge2" class="edge">
<title>nodo3&#45;&gt;nodo1</title>
<path fill="none" stroke="black" d="M235,-38.28C235,-46.03 235,-55.21 235,-63.73"/>
<polygon fill="black" stroke="black" points="231.5,-64 235,-74 238.5,-64 231.5,-64"/>
</g>
<!-- nodo4 -->
<g id="node5" class="node">
<title>nodo4</title>
<polygon fill="none" stroke="black" points="472,-110 324,-110 324,-74 472,-74 472,-110"/>
<text text-anchor="middle" x="398" y="-88.3" font-family="Times,serif" font-size="14.00">Hash: d7064683...</text>
</g>
<!-- nodo4&#45;&gt;nodo0 -->
<g id="edge5" class="edge">
<title>nodo4&#45;&gt;nodo0</title>
<path fill="none" stroke="black" d="M377.73,-110.3C367.5,-119.03 354.94,-129.76 343.82,-139.25"/>
<polygon fill="black" stroke="black" points="341.37,-136.74 336.04,-145.9 345.91,-142.06 341.37,-136.74"/>
</g>
<!-- nodo5 -->
<g id="node6" class="node">
<title>nodo5</title>
<polygon fill="none" stroke="black" points="471.5,-38 326.5,-38 326.5,0 471.5,0 471.5,-38"/>
<text text-anchor="middle" x="399" y="-22.8" font-family="Times,serif" font-size="14.00">Factura ID: 3</text>
<text text-anchor="middle" x="399" y="-7.8" font-family="Times,serif" font-size="14.00">Hash: 5e3159ec...</text>
</g>
<!-- nodo5&#45;&gt;nodo4 -->
<g id="edge4" class="edge">
<title>nodo5&#45;&gt;nodo4</title>
<path fill="none" stroke="black" d="M398.74,-38.28C398.63,-46.03 398.5,-55.21 398.38,-63.73"/>
<polygon fill="black" stroke="black" points="394.88,-63.95 398.24,-74 401.88,-64.05 394.88,-63.95"/>
</g>
</g>
</svg>
