<?xml version="1.0" encoding="UTF-8" standalone="no"?>
<!DOCTYPE svg PUBLIC "-//W3C//DTD SVG 1.1//EN"
 "http://www.w3.org/Graphics/SVG/1.1/DTD/svg11.dtd">
<!-- Generated by graphviz version 2.43.0 (0)
 -->
<!-- Title: ListaSimplementeEnlazada Pages: 1 -->
<svg width="2493pt" height="76pt"
 viewBox="0.00 0.00 2493.00 76.00" xmlns="http://www.w3.org/2000/svg" xmlns:xlink="http://www.w3.org/1999/xlink">
<g id="graph0" class="graph" transform="scale(1 1) rotate(0) translate(4 72)">
<title>ListaSimplementeEnlazada</title>
<polygon fill="white" stroke="transparent" points="-4,4 -4,-72 2489,-72 2489,4 -4,4"/>
<!-- node0 -->
<g id="node1" class="node">
<title>node0</title>
<polygon fill="none" stroke="black" points="218,-68 0,-68 0,0 218,0 218,-68"/>
<text text-anchor="middle" x="109" y="-52.8" font-family="Times,serif" font-size="14.00">ID: 2</text>
<text text-anchor="middle" x="109" y="-37.8" font-family="Times,serif" font-size="14.00">Nombre: Ana Lucia</text>
<text text-anchor="middle" x="109" y="-22.8" font-family="Times,serif" font-size="14.00">Correo: ana.lucia@usac.com</text>
<text text-anchor="middle" x="109" y="-7.8" font-family="Times,serif" font-size="14.00">Edad: 39</text>
</g>
<!-- node1 -->
<g id="node2" class="node">
<title>node1</title>
<polygon fill="none" stroke="black" points="493,-68 254,-68 254,0 493,0 493,-68"/>
<text text-anchor="middle" x="373.5" y="-52.8" font-family="Times,serif" font-size="14.00">ID: 3</text>
<text text-anchor="middle" x="373.5" y="-37.8" font-family="Times,serif" font-size="14.00">Nombre: Luis Enrique</text>
<text text-anchor="middle" x="373.5" y="-22.8" font-family="Times,serif" font-size="14.00">Correo: luis.enrique@usac.com</text>
<text text-anchor="middle" x="373.5" y="-7.8" font-family="Times,serif" font-size="14.00">Edad: 50</text>
</g>
<!-- node0&#45;&gt;node1 -->
<g id="edge1" class="edge">
<title>node0&#45;&gt;node1</title>
<path fill="none" stroke="black" d="M218.28,-34C226.71,-34 235.26,-34 243.81,-34"/>
<polygon fill="black" stroke="black" points="243.82,-37.5 253.82,-34 243.82,-30.5 243.82,-37.5"/>
</g>
<!-- node2 -->
<g id="node3" class="node">
<title>node2</title>
<polygon fill="none" stroke="black" points="773,-68 529,-68 529,0 773,0 773,-68"/>
<text text-anchor="middle" x="651" y="-52.8" font-family="Times,serif" font-size="14.00">ID: 4</text>
<text text-anchor="middle" x="651" y="-37.8" font-family="Times,serif" font-size="14.00">Nombre: Marta Isabel</text>
<text text-anchor="middle" x="651" y="-22.8" font-family="Times,serif" font-size="14.00">Correo: marta.isabel@usac.com</text>
<text text-anchor="middle" x="651" y="-7.8" font-family="Times,serif" font-size="14.00">Edad: 60</text>
</g>
<!-- node1&#45;&gt;node2 -->
<g id="edge2" class="edge">
<title>node1&#45;&gt;node2</title>
<path fill="none" stroke="black" d="M493.34,-34C501.81,-34 510.39,-34 518.93,-34"/>
<polygon fill="black" stroke="black" points="518.94,-37.5 528.94,-34 518.94,-30.5 518.94,-37.5"/>
</g>
<!-- node3 -->
<g id="node4" class="node">
<title>node3</title>
<polygon fill="none" stroke="black" points="1042,-68 809,-68 809,0 1042,0 1042,-68"/>
<text text-anchor="middle" x="925.5" y="-52.8" font-family="Times,serif" font-size="14.00">ID: 5</text>
<text text-anchor="middle" x="925.5" y="-37.8" font-family="Times,serif" font-size="14.00">Nombre: Juan Carlos</text>
<text text-anchor="middle" x="925.5" y="-22.8" font-family="Times,serif" font-size="14.00">Correo: juan.carlos@usac.com</text>
<text text-anchor="middle" x="925.5" y="-7.8" font-family="Times,serif" font-size="14.00">Edad: 46</text>
</g>
<!-- node2&#45;&gt;node3 -->
<g id="edge3" class="edge">
<title>node2&#45;&gt;node3</title>
<path fill="none" stroke="black" d="M773.11,-34C781.5,-34 789.96,-34 798.38,-34"/>
<polygon fill="black" stroke="black" points="798.6,-37.5 808.6,-34 798.6,-30.5 798.6,-37.5"/>
</g>
<!-- node4 -->
<g id="node5" class="node">
<title>node4</title>
<polygon fill="none" stroke="black" points="1342,-68 1078,-68 1078,0 1342,0 1342,-68"/>
<text text-anchor="middle" x="1210" y="-52.8" font-family="Times,serif" font-size="14.00">ID: 6</text>
<text text-anchor="middle" x="1210" y="-37.8" font-family="Times,serif" font-size="14.00">Nombre: Maria Fernanda</text>
<text text-anchor="middle" x="1210" y="-22.8" font-family="Times,serif" font-size="14.00">Correo: maria.fernanda@usac.com</text>
<text text-anchor="middle" x="1210" y="-7.8" font-family="Times,serif" font-size="14.00">Edad: 39</text>
</g>
<!-- node3&#45;&gt;node4 -->
<g id="edge4" class="edge">
<title>node3&#45;&gt;node4</title>
<path fill="none" stroke="black" d="M1042.22,-34C1050.65,-34 1059.21,-34 1067.77,-34"/>
<polygon fill="black" stroke="black" points="1067.81,-37.5 1077.81,-34 1067.81,-30.5 1067.81,-37.5"/>
</g>
<!-- node5 -->
<g id="node6" class="node">
<title>node5</title>
<polygon fill="none" stroke="black" points="1617,-68 1378,-68 1378,0 1617,0 1617,-68"/>
<text text-anchor="middle" x="1497.5" y="-52.8" font-family="Times,serif" font-size="14.00">ID: 7</text>
<text text-anchor="middle" x="1497.5" y="-37.8" font-family="Times,serif" font-size="14.00">Nombre: Pedro Pablo</text>
<text text-anchor="middle" x="1497.5" y="-22.8" font-family="Times,serif" font-size="14.00">Correo: pedro.pablo@usac.com</text>
<text text-anchor="middle" x="1497.5" y="-7.8" font-family="Times,serif" font-size="14.00">Edad: 32</text>
</g>
<!-- node4&#45;&gt;node5 -->
<g id="edge5" class="edge">
<title>node4&#45;&gt;node5</title>
<path fill="none" stroke="black" d="M1342.05,-34C1350.49,-34 1358.99,-34 1367.42,-34"/>
<polygon fill="black" stroke="black" points="1367.67,-37.5 1377.67,-34 1367.67,-30.5 1367.67,-37.5"/>
</g>
<!-- node6 -->
<g id="node7" class="node">
<title>node6</title>
<polygon fill="none" stroke="black" points="1891,-68 1653,-68 1653,0 1891,0 1891,-68"/>
<text text-anchor="middle" x="1772" y="-52.8" font-family="Times,serif" font-size="14.00">ID: 8</text>
<text text-anchor="middle" x="1772" y="-37.8" font-family="Times,serif" font-size="14.00">Nombre: Laura Isabel</text>
<text text-anchor="middle" x="1772" y="-22.8" font-family="Times,serif" font-size="14.00">Correo: laura.isabel@usac.com</text>
<text text-anchor="middle" x="1772" y="-7.8" font-family="Times,serif" font-size="14.00">Edad: 18</text>
</g>
<!-- node5&#45;&gt;node6 -->
<g id="edge6" class="edge">
<title>node5&#45;&gt;node6</title>
<path fill="none" stroke="black" d="M1617.23,-34C1625.59,-34 1634.04,-34 1642.45,-34"/>
<polygon fill="black" stroke="black" points="1642.68,-37.5 1652.68,-34 1642.68,-30.5 1642.68,-37.5"/>
</g>
<!-- node7 -->
<g id="node8" class="node">
<title>node7</title>
<polygon fill="none" stroke="black" points="2194,-68 1927,-68 1927,0 2194,0 2194,-68"/>
<text text-anchor="middle" x="2060.5" y="-52.8" font-family="Times,serif" font-size="14.00">ID: 9</text>
<text text-anchor="middle" x="2060.5" y="-37.8" font-family="Times,serif" font-size="14.00">Nombre: Rafael Alejandro</text>
<text text-anchor="middle" x="2060.5" y="-22.8" font-family="Times,serif" font-size="14.00">Correo: rafael.alejandro@usac.com</text>
<text text-anchor="middle" x="2060.5" y="-7.8" font-family="Times,serif" font-size="14.00">Edad: 20</text>
</g>
<!-- node6&#45;&gt;node7 -->
<g id="edge7" class="edge">
<title>node6&#45;&gt;node7</title>
<path fill="none" stroke="black" d="M1891.18,-34C1899.6,-34 1908.14,-34 1916.68,-34"/>
<polygon fill="black" stroke="black" points="1916.69,-37.5 1926.69,-34 1916.69,-30.5 1916.69,-37.5"/>
</g>
<!-- node8 -->
<g id="node9" class="node">
<title>node8</title>
<polygon fill="none" stroke="black" points="2485,-68 2230,-68 2230,0 2485,0 2485,-68"/>
<text text-anchor="middle" x="2357.5" y="-52.8" font-family="Times,serif" font-size="14.00">ID: 10</text>
<text text-anchor="middle" x="2357.5" y="-37.8" font-family="Times,serif" font-size="14.00">Nombre: Isabel Cristina</text>
<text text-anchor="middle" x="2357.5" y="-22.8" font-family="Times,serif" font-size="14.00">Correo: isabel.cristina@usac.com</text>
<text text-anchor="middle" x="2357.5" y="-7.8" font-family="Times,serif" font-size="14.00">Edad: 40</text>
</g>
<!-- node7&#45;&gt;node8 -->
<g id="edge8" class="edge">
<title>node7&#45;&gt;node8</title>
<path fill="none" stroke="black" d="M2194.33,-34C2202.7,-34 2211.14,-34 2219.53,-34"/>
<polygon fill="black" stroke="black" points="2219.73,-37.5 2229.73,-34 2219.73,-30.5 2219.73,-37.5"/>
</g>
</g>
</svg>
