<?xml version="1.0" encoding="UTF-8" standalone="no"?>
<!DOCTYPE svg PUBLIC "-//W3C//DTD SVG 1.1//EN"
 "http://www.w3.org/Graphics/SVG/1.1/DTD/svg11.dtd">
<!-- Generated by graphviz version 2.43.0 (0)
 -->
<!-- Title: ListaSimplementeEnlazada Pages: 1 -->
<svg width="8155pt" height="106pt"
 viewBox="0.00 0.00 8155.00 106.00" xmlns="http://www.w3.org/2000/svg" xmlns:xlink="http://www.w3.org/1999/xlink">
<g id="graph0" class="graph" transform="scale(1 1) rotate(0) translate(4 102)">
<title>ListaSimplementeEnlazada</title>
<polygon fill="white" stroke="transparent" points="-4,4 -4,-102 8151,-102 8151,4 -4,4"/>
<!-- node0 -->
<g id="node1" class="node">
<title>node0</title>
<polygon fill="none" stroke="black" points="648,-98 0,-98 0,0 648,0 648,-98"/>
<text text-anchor="middle" x="324" y="-82.8" font-family="Times,serif" font-size="14.00">INDEX: 11</text>
<text text-anchor="middle" x="324" y="-67.8" font-family="Times,serif" font-size="14.00">Time Stamp: 29&#45;04&#45;25::14:57:36</text>
<text text-anchor="middle" x="324" y="-52.8" font-family="Times,serif" font-size="14.00">DATA: {ID: 12, Nombre: pedro, Correo: pedro@dfa, Edad: 36} </text>
<text text-anchor="middle" x="324" y="-37.8" font-family="Times,serif" font-size="14.00">Nonce: 56710</text>
<text text-anchor="middle" x="324" y="-22.8" font-family="Times,serif" font-size="14.00">Prev Hash: 00005339bb454c8556f5d0e458c70abf75a005cec65012e7423f07a41dbc74fe</text>
<text text-anchor="middle" x="324" y="-7.8" font-family="Times,serif" font-size="14.00">HASH: 0000b5e1b50ecdba419415e822ed360a5c10897a689065bff34ddbb2377c86fd</text>
</g>
<!-- node1 -->
<g id="node2" class="node">
<title>node1</title>
<polygon fill="none" stroke="black" points="1332,-98 684,-98 684,0 1332,0 1332,-98"/>
<text text-anchor="middle" x="1008" y="-82.8" font-family="Times,serif" font-size="14.00">INDEX: 10</text>
<text text-anchor="middle" x="1008" y="-67.8" font-family="Times,serif" font-size="14.00">Time Stamp: 29&#45;04&#45;25::14:56:11</text>
<text text-anchor="middle" x="1008" y="-52.8" font-family="Times,serif" font-size="14.00">DATA: {ID: 10, Nombre: Isabel Cristina, Correo: isabel.cristina@usac.com, Edad: 40} </text>
<text text-anchor="middle" x="1008" y="-37.8" font-family="Times,serif" font-size="14.00">Nonce: 23441</text>
<text text-anchor="middle" x="1008" y="-22.8" font-family="Times,serif" font-size="14.00">Prev Hash: 00005a459b7881eec4b4a2f32a52c6e7afab0c0c03366fe1416d54f739856008</text>
<text text-anchor="middle" x="1008" y="-7.8" font-family="Times,serif" font-size="14.00">HASH: 00005339bb454c8556f5d0e458c70abf75a005cec65012e7423f07a41dbc74fe</text>
</g>
<!-- node0&#45;&gt;node1 -->
<g id="edge1" class="edge">
<title>node0&#45;&gt;node1</title>
<path fill="none" stroke="black" d="M648.02,-49C656.62,-49 665.24,-49 673.85,-49"/>
<polygon fill="black" stroke="black" points="673.95,-52.5 683.95,-49 673.95,-45.5 673.95,-52.5"/>
</g>
<!-- node2 -->
<g id="node3" class="node">
<title>node2</title>
<polygon fill="none" stroke="black" points="2021,-98 1368,-98 1368,0 2021,0 2021,-98"/>
<text text-anchor="middle" x="1694.5" y="-82.8" font-family="Times,serif" font-size="14.00">INDEX: 9</text>
<text text-anchor="middle" x="1694.5" y="-67.8" font-family="Times,serif" font-size="14.00">Time Stamp: 29&#45;04&#45;25::14:56:09</text>
<text text-anchor="middle" x="1694.5" y="-52.8" font-family="Times,serif" font-size="14.00">DATA: {ID: 9, Nombre: Rafael Alejandro, Correo: rafael.alejandro@usac.com, Edad: 20} </text>
<text text-anchor="middle" x="1694.5" y="-37.8" font-family="Times,serif" font-size="14.00">Nonce: 124914</text>
<text text-anchor="middle" x="1694.5" y="-22.8" font-family="Times,serif" font-size="14.00">Prev Hash: 00000014015803a2feb3b24e43f5ea7ba26256cc6f362ddb94452ae81404ec6d</text>
<text text-anchor="middle" x="1694.5" y="-7.8" font-family="Times,serif" font-size="14.00">HASH: 00005a459b7881eec4b4a2f32a52c6e7afab0c0c03366fe1416d54f739856008</text>
</g>
<!-- node1&#45;&gt;node2 -->
<g id="edge2" class="edge">
<title>node1&#45;&gt;node2</title>
<path fill="none" stroke="black" d="M1332.21,-49C1340.73,-49 1349.27,-49 1357.8,-49"/>
<polygon fill="black" stroke="black" points="1357.81,-52.5 1367.81,-49 1357.81,-45.5 1357.81,-52.5"/>
</g>
<!-- node3 -->
<g id="node4" class="node">
<title>node3</title>
<polygon fill="none" stroke="black" points="2692,-98 2057,-98 2057,0 2692,0 2692,-98"/>
<text text-anchor="middle" x="2374.5" y="-82.8" font-family="Times,serif" font-size="14.00">INDEX: 8</text>
<text text-anchor="middle" x="2374.5" y="-67.8" font-family="Times,serif" font-size="14.00">Time Stamp: 29&#45;04&#45;25::14:56:07</text>
<text text-anchor="middle" x="2374.5" y="-52.8" font-family="Times,serif" font-size="14.00">DATA: {ID: 8, Nombre: Laura Isabel, Correo: laura.isabel@usac.com, Edad: 18} </text>
<text text-anchor="middle" x="2374.5" y="-37.8" font-family="Times,serif" font-size="14.00">Nonce: 48783</text>
<text text-anchor="middle" x="2374.5" y="-22.8" font-family="Times,serif" font-size="14.00">Prev Hash: 0000f1e8bcec78aeec7ff1cc6f3b3a7d44a3e2ba2eda78f7789348942f88a1a8</text>
<text text-anchor="middle" x="2374.5" y="-7.8" font-family="Times,serif" font-size="14.00">HASH: 00000014015803a2feb3b24e43f5ea7ba26256cc6f362ddb94452ae81404ec6d</text>
</g>
<!-- node2&#45;&gt;node3 -->
<g id="edge3" class="edge">
<title>node2&#45;&gt;node3</title>
<path fill="none" stroke="black" d="M2021.1,-49C2029.64,-49 2038.19,-49 2046.73,-49"/>
<polygon fill="black" stroke="black" points="2046.76,-52.5 2056.76,-49 2046.76,-45.5 2046.76,-52.5"/>
</g>
<!-- node4 -->
<g id="node5" class="node">
<title>node4</title>
<polygon fill="none" stroke="black" points="3376,-98 2728,-98 2728,0 3376,0 3376,-98"/>
<text text-anchor="middle" x="3052" y="-82.8" font-family="Times,serif" font-size="14.00">INDEX: 7</text>
<text text-anchor="middle" x="3052" y="-67.8" font-family="Times,serif" font-size="14.00">Time Stamp: 29&#45;04&#45;25::14:56:06</text>
<text text-anchor="middle" x="3052" y="-52.8" font-family="Times,serif" font-size="14.00">DATA: {ID: 7, Nombre: Pedro Pablo, Correo: pedro.pablo@usac.com, Edad: 32} </text>
<text text-anchor="middle" x="3052" y="-37.8" font-family="Times,serif" font-size="14.00">Nonce: 34352</text>
<text text-anchor="middle" x="3052" y="-22.8" font-family="Times,serif" font-size="14.00">Prev Hash: 0000b1acee5262475091b2729f94e9091433a5a1bfe623e3f83101fb8afba56b</text>
<text text-anchor="middle" x="3052" y="-7.8" font-family="Times,serif" font-size="14.00">HASH: 0000f1e8bcec78aeec7ff1cc6f3b3a7d44a3e2ba2eda78f7789348942f88a1a8</text>
</g>
<!-- node3&#45;&gt;node4 -->
<g id="edge4" class="edge">
<title>node3&#45;&gt;node4</title>
<path fill="none" stroke="black" d="M2692.48,-49C2700.83,-49 2709.19,-49 2717.55,-49"/>
<polygon fill="black" stroke="black" points="2717.75,-52.5 2727.75,-49 2717.75,-45.5 2717.75,-52.5"/>
</g>
<!-- node5 -->
<g id="node6" class="node">
<title>node5</title>
<polygon fill="none" stroke="black" points="4069,-98 3412,-98 3412,0 4069,0 4069,-98"/>
<text text-anchor="middle" x="3740.5" y="-82.8" font-family="Times,serif" font-size="14.00">INDEX: 6</text>
<text text-anchor="middle" x="3740.5" y="-67.8" font-family="Times,serif" font-size="14.00">Time Stamp: 29&#45;04&#45;25::14:56:05</text>
<text text-anchor="middle" x="3740.5" y="-52.8" font-family="Times,serif" font-size="14.00">DATA: {ID: 6, Nombre: Maria Fernanda, Correo: maria.fernanda@usac.com, Edad: 39} </text>
<text text-anchor="middle" x="3740.5" y="-37.8" font-family="Times,serif" font-size="14.00">Nonce: 46844</text>
<text text-anchor="middle" x="3740.5" y="-22.8" font-family="Times,serif" font-size="14.00">Prev Hash: 00000d55d428f83e3c78d3003d612ee8890cb2458bf3f6e4e37d840236a28652</text>
<text text-anchor="middle" x="3740.5" y="-7.8" font-family="Times,serif" font-size="14.00">HASH: 0000b1acee5262475091b2729f94e9091433a5a1bfe623e3f83101fb8afba56b</text>
</g>
<!-- node4&#45;&gt;node5 -->
<g id="edge5" class="edge">
<title>node4&#45;&gt;node5</title>
<path fill="none" stroke="black" d="M3376.15,-49C3384.71,-49 3393.29,-49 3401.86,-49"/>
<polygon fill="black" stroke="black" points="3401.92,-52.5 3411.92,-49 3401.92,-45.5 3401.92,-52.5"/>
</g>
<!-- node6 -->
<g id="node7" class="node">
<title>node6</title>
<polygon fill="none" stroke="black" points="4755,-98 4105,-98 4105,0 4755,0 4755,-98"/>
<text text-anchor="middle" x="4430" y="-82.8" font-family="Times,serif" font-size="14.00">INDEX: 5</text>
<text text-anchor="middle" x="4430" y="-67.8" font-family="Times,serif" font-size="14.00">Time Stamp: 29&#45;04&#45;25::14:56:03</text>
<text text-anchor="middle" x="4430" y="-52.8" font-family="Times,serif" font-size="14.00">DATA: {ID: 5, Nombre: Juan Carlos, Correo: juan.carlos@usac.com, Edad: 46} </text>
<text text-anchor="middle" x="4430" y="-37.8" font-family="Times,serif" font-size="14.00">Nonce: 114358</text>
<text text-anchor="middle" x="4430" y="-22.8" font-family="Times,serif" font-size="14.00">Prev Hash: 0000cbe7624f83694aa76912e38eae0c14d3fe902a127cf83738a0417639ced7</text>
<text text-anchor="middle" x="4430" y="-7.8" font-family="Times,serif" font-size="14.00">HASH: 00000d55d428f83e3c78d3003d612ee8890cb2458bf3f6e4e37d840236a28652</text>
</g>
<!-- node5&#45;&gt;node6 -->
<g id="edge6" class="edge">
<title>node5&#45;&gt;node6</title>
<path fill="none" stroke="black" d="M4069.14,-49C4077.72,-49 4086.31,-49 4094.89,-49"/>
<polygon fill="black" stroke="black" points="4094.96,-52.5 4104.96,-49 4094.96,-45.5 4094.96,-52.5"/>
</g>
<!-- node7 -->
<g id="node8" class="node">
<title>node7</title>
<polygon fill="none" stroke="black" points="5439,-98 4791,-98 4791,0 5439,0 5439,-98"/>
<text text-anchor="middle" x="5115" y="-82.8" font-family="Times,serif" font-size="14.00">INDEX: 4</text>
<text text-anchor="middle" x="5115" y="-67.8" font-family="Times,serif" font-size="14.00">Time Stamp: 29&#45;04&#45;25::14:55:59</text>
<text text-anchor="middle" x="5115" y="-52.8" font-family="Times,serif" font-size="14.00">DATA: {ID: 4, Nombre: Marta Isabel, Correo: marta.isabel@usac.com, Edad: 60} </text>
<text text-anchor="middle" x="5115" y="-37.8" font-family="Times,serif" font-size="14.00">Nonce: 163112</text>
<text text-anchor="middle" x="5115" y="-22.8" font-family="Times,serif" font-size="14.00">Prev Hash: 000041fbbe5cdd0c0b6288eaf2cdeb4b92335af3d49274368d66518af9f2269d</text>
<text text-anchor="middle" x="5115" y="-7.8" font-family="Times,serif" font-size="14.00">HASH: 0000cbe7624f83694aa76912e38eae0c14d3fe902a127cf83738a0417639ced7</text>
</g>
<!-- node6&#45;&gt;node7 -->
<g id="edge7" class="edge">
<title>node6&#45;&gt;node7</title>
<path fill="none" stroke="black" d="M4755.5,-49C4763.88,-49 4772.27,-49 4780.66,-49"/>
<polygon fill="black" stroke="black" points="4780.89,-52.5 4790.89,-49 4780.89,-45.5 4780.89,-52.5"/>
</g>
<!-- node8 -->
<g id="node9" class="node">
<title>node8</title>
<polygon fill="none" stroke="black" points="6125,-98 5475,-98 5475,0 6125,0 6125,-98"/>
<text text-anchor="middle" x="5800" y="-82.8" font-family="Times,serif" font-size="14.00">INDEX: 3</text>
<text text-anchor="middle" x="5800" y="-67.8" font-family="Times,serif" font-size="14.00">Time Stamp: 29&#45;04&#45;25::14:55:59</text>
<text text-anchor="middle" x="5800" y="-52.8" font-family="Times,serif" font-size="14.00">DATA: {ID: 3, Nombre: Luis Enrique, Correo: luis.enrique@usac.com, Edad: 50} </text>
<text text-anchor="middle" x="5800" y="-37.8" font-family="Times,serif" font-size="14.00">Nonce: 12974</text>
<text text-anchor="middle" x="5800" y="-22.8" font-family="Times,serif" font-size="14.00">Prev Hash: 0000be20cee867abafc98a98b16cc28a50725a23bf714c2289717eeceb9edb12</text>
<text text-anchor="middle" x="5800" y="-7.8" font-family="Times,serif" font-size="14.00">HASH: 000041fbbe5cdd0c0b6288eaf2cdeb4b92335af3d49274368d66518af9f2269d</text>
</g>
<!-- node7&#45;&gt;node8 -->
<g id="edge8" class="edge">
<title>node7&#45;&gt;node8</title>
<path fill="none" stroke="black" d="M5439.5,-49C5447.89,-49 5456.3,-49 5464.71,-49"/>
<polygon fill="black" stroke="black" points="5464.96,-52.5 5474.96,-49 5464.96,-45.5 5464.96,-52.5"/>
</g>
<!-- node9 -->
<g id="node10" class="node">
<title>node9</title>
<polygon fill="none" stroke="black" points="6814,-98 6161,-98 6161,0 6814,0 6814,-98"/>
<text text-anchor="middle" x="6487.5" y="-82.8" font-family="Times,serif" font-size="14.00">INDEX: 2</text>
<text text-anchor="middle" x="6487.5" y="-67.8" font-family="Times,serif" font-size="14.00">Time Stamp: 29&#45;04&#45;25::14:55:58</text>
<text text-anchor="middle" x="6487.5" y="-52.8" font-family="Times,serif" font-size="14.00">DATA: {ID: 2, Nombre: Ana Lucia, Correo: ana.lucia@usac.com, Edad: 39} </text>
<text text-anchor="middle" x="6487.5" y="-37.8" font-family="Times,serif" font-size="14.00">Nonce: 45394</text>
<text text-anchor="middle" x="6487.5" y="-22.8" font-family="Times,serif" font-size="14.00">Prev Hash: 000066933447c2de2cd0d51cebc4958b2d6251b36a454771348fd63152ffe6c2</text>
<text text-anchor="middle" x="6487.5" y="-7.8" font-family="Times,serif" font-size="14.00">HASH: 0000be20cee867abafc98a98b16cc28a50725a23bf714c2289717eeceb9edb12</text>
</g>
<!-- node8&#45;&gt;node9 -->
<g id="edge9" class="edge">
<title>node8&#45;&gt;node9</title>
<path fill="none" stroke="black" d="M6125.18,-49C6133.71,-49 6142.25,-49 6150.79,-49"/>
<polygon fill="black" stroke="black" points="6150.8,-52.5 6160.8,-49 6150.8,-45.5 6150.8,-52.5"/>
</g>
<!-- node10 -->
<g id="node11" class="node">
<title>node10</title>
<polygon fill="none" stroke="black" points="7496,-98 6850,-98 6850,0 7496,0 7496,-98"/>
<text text-anchor="middle" x="7173" y="-82.8" font-family="Times,serif" font-size="14.00">INDEX: 1</text>
<text text-anchor="middle" x="7173" y="-67.8" font-family="Times,serif" font-size="14.00">Time Stamp: 29&#45;04&#45;25::14:55:57</text>
<text text-anchor="middle" x="7173" y="-52.8" font-family="Times,serif" font-size="14.00">DATA: {ID: 1, Nombre: Carlos Alberto, Correo: carlos.alberto@usac.com, Edad: 16} </text>
<text text-anchor="middle" x="7173" y="-37.8" font-family="Times,serif" font-size="14.00">Nonce: 13751</text>
<text text-anchor="middle" x="7173" y="-22.8" font-family="Times,serif" font-size="14.00">Prev Hash: 0000a7aff6456c244633883f973efe0e8432bea9b5d0e5da1b5d0e7f19071c3b</text>
<text text-anchor="middle" x="7173" y="-7.8" font-family="Times,serif" font-size="14.00">HASH: 000066933447c2de2cd0d51cebc4958b2d6251b36a454771348fd63152ffe6c2</text>
</g>
<!-- node9&#45;&gt;node10 -->
<g id="edge10" class="edge">
<title>node9&#45;&gt;node10</title>
<path fill="none" stroke="black" d="M6814.24,-49C6822.76,-49 6831.3,-49 6839.83,-49"/>
<polygon fill="black" stroke="black" points="6839.84,-52.5 6849.84,-49 6839.84,-45.5 6839.84,-52.5"/>
</g>
<!-- node11 -->
<g id="node12" class="node">
<title>node11</title>
<polygon fill="none" stroke="black" points="8147,-98 7532,-98 7532,0 8147,0 8147,-98"/>
<text text-anchor="middle" x="7839.5" y="-82.8" font-family="Times,serif" font-size="14.00">INDEX: 0</text>
<text text-anchor="middle" x="7839.5" y="-67.8" font-family="Times,serif" font-size="14.00">Time Stamp: 29&#45;04&#45;25::14:55:52</text>
<text text-anchor="middle" x="7839.5" y="-52.8" font-family="Times,serif" font-size="14.00">DATA: {ID: 11, Nombre: Pepe, Correo: pepe.alc@, Edad: 20} </text>
<text text-anchor="middle" x="7839.5" y="-37.8" font-family="Times,serif" font-size="14.00">Nonce: 183799</text>
<text text-anchor="middle" x="7839.5" y="-22.8" font-family="Times,serif" font-size="14.00">Prev Hash: 0000</text>
<text text-anchor="middle" x="7839.5" y="-7.8" font-family="Times,serif" font-size="14.00">HASH: 0000a7aff6456c244633883f973efe0e8432bea9b5d0e5da1b5d0e7f19071c3b</text>
</g>
<!-- node10&#45;&gt;node11 -->
<g id="edge11" class="edge">
<title>node10&#45;&gt;node11</title>
<path fill="none" stroke="black" d="M7496.03,-49C7504.59,-49 7513.17,-49 7521.73,-49"/>
<polygon fill="black" stroke="black" points="7521.77,-52.5 7531.77,-49 7521.77,-45.5 7521.77,-52.5"/>
</g>
</g>
</svg>
