<?xml version="1.0" encoding="UTF-8" standalone="no"?>
<!DOCTYPE svg PUBLIC "-//W3C//DTD SVG 1.1//EN"
 "http://www.w3.org/Graphics/SVG/1.1/DTD/svg11.dtd">
<!-- Generated by graphviz version 2.43.0 (0)
 -->
<!-- Title: ListaSimplementeEnlazada Pages: 1 -->
<svg width="8194pt" height="106pt"
 viewBox="0.00 0.00 8194.00 106.00" xmlns="http://www.w3.org/2000/svg" xmlns:xlink="http://www.w3.org/1999/xlink">
<g id="graph0" class="graph" transform="scale(1 1) rotate(0) translate(4 102)">
<title>ListaSimplementeEnlazada</title>
<polygon fill="white" stroke="transparent" points="-4,4 -4,-102 8190,-102 8190,4 -4,4"/>
<!-- node0 -->
<g id="node1" class="node">
<title>node0</title>
<polygon fill="none" stroke="black" points="659,-98 0,-98 0,0 659,0 659,-98"/>
<text text-anchor="middle" x="329.5" y="-82.8" font-family="Times,serif" font-size="14.00">INDEX: 11</text>
<text text-anchor="middle" x="329.5" y="-67.8" font-family="Times,serif" font-size="14.00">Time Stamp: 01&#45;05&#45;25::01:42:29</text>
<text text-anchor="middle" x="329.5" y="-52.8" font-family="Times,serif" font-size="14.00">DATA: {ID: 11, Nombre: Pepe, Correo: pepe.alc@, Edad: 20} </text>
<text text-anchor="middle" x="329.5" y="-37.8" font-family="Times,serif" font-size="14.00">Nonce: 61680</text>
<text text-anchor="middle" x="329.5" y="-22.8" font-family="Times,serif" font-size="14.00">Prev Hash: 00001ae8570b078691b626408a4152a5cac8af3d89deb008530ea38c1688aa7d</text>
<text text-anchor="middle" x="329.5" y="-7.8" font-family="Times,serif" font-size="14.00">HASH: 00006764a7df110ee4f3d3a37549db5d25b1bfccb147de2065181cfb9650057a</text>
</g>
<!-- node1 -->
<g id="node2" class="node">
<title>node1</title>
<polygon fill="none" stroke="black" points="1346,-98 695,-98 695,0 1346,0 1346,-98"/>
<text text-anchor="middle" x="1020.5" y="-82.8" font-family="Times,serif" font-size="14.00">INDEX: 10</text>
<text text-anchor="middle" x="1020.5" y="-67.8" font-family="Times,serif" font-size="14.00">Time Stamp: 01&#45;05&#45;25::01:42:29</text>
<text text-anchor="middle" x="1020.5" y="-52.8" font-family="Times,serif" font-size="14.00">DATA: {ID: 1, Nombre: Carlos Alberto, Correo: carlos.alberto@usac.com, Edad: 16} </text>
<text text-anchor="middle" x="1020.5" y="-37.8" font-family="Times,serif" font-size="14.00">Nonce: 28806</text>
<text text-anchor="middle" x="1020.5" y="-22.8" font-family="Times,serif" font-size="14.00">Prev Hash: 00001868bd7fc8b22eb2296f6ac2459f46d638611e4e3af084852e53b8cb36e7</text>
<text text-anchor="middle" x="1020.5" y="-7.8" font-family="Times,serif" font-size="14.00">HASH: 00001ae8570b078691b626408a4152a5cac8af3d89deb008530ea38c1688aa7d</text>
</g>
<!-- node0&#45;&gt;node1 -->
<g id="edge1" class="edge">
<title>node0&#45;&gt;node1</title>
<path fill="none" stroke="black" d="M659.11,-49C667.7,-49 676.3,-49 684.9,-49"/>
<polygon fill="black" stroke="black" points="684.99,-52.5 694.99,-49 684.99,-45.5 684.99,-52.5"/>
</g>
<!-- node2 -->
<g id="node3" class="node">
<title>node2</title>
<polygon fill="none" stroke="black" points="2029,-98 1382,-98 1382,0 2029,0 2029,-98"/>
<text text-anchor="middle" x="1705.5" y="-82.8" font-family="Times,serif" font-size="14.00">INDEX: 9</text>
<text text-anchor="middle" x="1705.5" y="-67.8" font-family="Times,serif" font-size="14.00">Time Stamp: 01&#45;05&#45;25::01:42:29</text>
<text text-anchor="middle" x="1705.5" y="-52.8" font-family="Times,serif" font-size="14.00">DATA: {ID: 2, Nombre: Ana Lucia, Correo: ana.lucia@usac.com, Edad: 39} </text>
<text text-anchor="middle" x="1705.5" y="-37.8" font-family="Times,serif" font-size="14.00">Nonce: 2833</text>
<text text-anchor="middle" x="1705.5" y="-22.8" font-family="Times,serif" font-size="14.00">Prev Hash: 0000683403335968f508480bc239b04f5a2c454f0320bd026eeccfe5fda35b3e</text>
<text text-anchor="middle" x="1705.5" y="-7.8" font-family="Times,serif" font-size="14.00">HASH: 00001868bd7fc8b22eb2296f6ac2459f46d638611e4e3af084852e53b8cb36e7</text>
</g>
<!-- node1&#45;&gt;node2 -->
<g id="edge2" class="edge">
<title>node1&#45;&gt;node2</title>
<path fill="none" stroke="black" d="M1346.5,-49C1354.87,-49 1363.26,-49 1371.64,-49"/>
<polygon fill="black" stroke="black" points="1371.85,-52.5 1381.85,-49 1371.85,-45.5 1371.85,-52.5"/>
</g>
<!-- node3 -->
<g id="node4" class="node">
<title>node3</title>
<polygon fill="none" stroke="black" points="2711,-98 2065,-98 2065,0 2711,0 2711,-98"/>
<text text-anchor="middle" x="2388" y="-82.8" font-family="Times,serif" font-size="14.00">INDEX: 8</text>
<text text-anchor="middle" x="2388" y="-67.8" font-family="Times,serif" font-size="14.00">Time Stamp: 01&#45;05&#45;25::01:42:28</text>
<text text-anchor="middle" x="2388" y="-52.8" font-family="Times,serif" font-size="14.00">DATA: {ID: 3, Nombre: Luis Enrique, Correo: luis.enrique@usac.com, Edad: 50} </text>
<text text-anchor="middle" x="2388" y="-37.8" font-family="Times,serif" font-size="14.00">Nonce: 4258</text>
<text text-anchor="middle" x="2388" y="-22.8" font-family="Times,serif" font-size="14.00">Prev Hash: 0000d7bc483b2c690a8f5c1c7bb52282ca608df12f7a27488117a49a85fd9f42</text>
<text text-anchor="middle" x="2388" y="-7.8" font-family="Times,serif" font-size="14.00">HASH: 0000683403335968f508480bc239b04f5a2c454f0320bd026eeccfe5fda35b3e</text>
</g>
<!-- node2&#45;&gt;node3 -->
<g id="edge3" class="edge">
<title>node2&#45;&gt;node3</title>
<path fill="none" stroke="black" d="M2029.31,-49C2037.73,-49 2046.16,-49 2054.59,-49"/>
<polygon fill="black" stroke="black" points="2054.86,-52.5 2064.86,-49 2054.86,-45.5 2054.86,-52.5"/>
</g>
<!-- node4 -->
<g id="node5" class="node">
<title>node4</title>
<polygon fill="none" stroke="black" points="3395,-98 2747,-98 2747,0 3395,0 3395,-98"/>
<text text-anchor="middle" x="3071" y="-82.8" font-family="Times,serif" font-size="14.00">INDEX: 7</text>
<text text-anchor="middle" x="3071" y="-67.8" font-family="Times,serif" font-size="14.00">Time Stamp: 01&#45;05&#45;25::01:42:28</text>
<text text-anchor="middle" x="3071" y="-52.8" font-family="Times,serif" font-size="14.00">DATA: {ID: 4, Nombre: Marta Isabel, Correo: marta.isabel@usac.com, Edad: 60} </text>
<text text-anchor="middle" x="3071" y="-37.8" font-family="Times,serif" font-size="14.00">Nonce: 4644</text>
<text text-anchor="middle" x="3071" y="-22.8" font-family="Times,serif" font-size="14.00">Prev Hash: 0000559fd2a1b74c968ea617a42dad32f1b22b291ac2bdc6a6ff6a3bbc1b3875</text>
<text text-anchor="middle" x="3071" y="-7.8" font-family="Times,serif" font-size="14.00">HASH: 0000d7bc483b2c690a8f5c1c7bb52282ca608df12f7a27488117a49a85fd9f42</text>
</g>
<!-- node3&#45;&gt;node4 -->
<g id="edge4" class="edge">
<title>node3&#45;&gt;node4</title>
<path fill="none" stroke="black" d="M2711.05,-49C2719.65,-49 2728.26,-49 2736.86,-49"/>
<polygon fill="black" stroke="black" points="2736.96,-52.5 2746.96,-49 2736.96,-45.5 2736.96,-52.5"/>
</g>
<!-- node5 -->
<g id="node6" class="node">
<title>node5</title>
<polygon fill="none" stroke="black" points="4080,-98 3431,-98 3431,0 4080,0 4080,-98"/>
<text text-anchor="middle" x="3755.5" y="-82.8" font-family="Times,serif" font-size="14.00">INDEX: 6</text>
<text text-anchor="middle" x="3755.5" y="-67.8" font-family="Times,serif" font-size="14.00">Time Stamp: 01&#45;05&#45;25::01:42:27</text>
<text text-anchor="middle" x="3755.5" y="-52.8" font-family="Times,serif" font-size="14.00">DATA: {ID: 5, Nombre: Juan Carlos, Correo: juan.carlos@usac.com, Edad: 46} </text>
<text text-anchor="middle" x="3755.5" y="-37.8" font-family="Times,serif" font-size="14.00">Nonce: 65566</text>
<text text-anchor="middle" x="3755.5" y="-22.8" font-family="Times,serif" font-size="14.00">Prev Hash: 0000123badc8160f7e5f817ae1c2f6d4675ab24511538aa1e426c5c0bdbf3089</text>
<text text-anchor="middle" x="3755.5" y="-7.8" font-family="Times,serif" font-size="14.00">HASH: 0000559fd2a1b74c968ea617a42dad32f1b22b291ac2bdc6a6ff6a3bbc1b3875</text>
</g>
<!-- node4&#45;&gt;node5 -->
<g id="edge5" class="edge">
<title>node4&#45;&gt;node5</title>
<path fill="none" stroke="black" d="M3395.26,-49C3403.81,-49 3412.36,-49 3420.92,-49"/>
<polygon fill="black" stroke="black" points="3420.95,-52.5 3430.95,-49 3420.95,-45.5 3420.95,-52.5"/>
</g>
<!-- node6 -->
<g id="node7" class="node">
<title>node6</title>
<polygon fill="none" stroke="black" points="4771,-98 4116,-98 4116,0 4771,0 4771,-98"/>
<text text-anchor="middle" x="4443.5" y="-82.8" font-family="Times,serif" font-size="14.00">INDEX: 5</text>
<text text-anchor="middle" x="4443.5" y="-67.8" font-family="Times,serif" font-size="14.00">Time Stamp: 01&#45;05&#45;25::01:42:25</text>
<text text-anchor="middle" x="4443.5" y="-52.8" font-family="Times,serif" font-size="14.00">DATA: {ID: 6, Nombre: Maria Fernanda, Correo: maria.fernanda@usac.com, Edad: 39} </text>
<text text-anchor="middle" x="4443.5" y="-37.8" font-family="Times,serif" font-size="14.00">Nonce: 69671</text>
<text text-anchor="middle" x="4443.5" y="-22.8" font-family="Times,serif" font-size="14.00">Prev Hash: 000004b576f45e33c397c9dc0edeaeb4884889b57cb0bc2d0876796b0a2dc09f</text>
<text text-anchor="middle" x="4443.5" y="-7.8" font-family="Times,serif" font-size="14.00">HASH: 0000123badc8160f7e5f817ae1c2f6d4675ab24511538aa1e426c5c0bdbf3089</text>
</g>
<!-- node5&#45;&gt;node6 -->
<g id="edge6" class="edge">
<title>node5&#45;&gt;node6</title>
<path fill="none" stroke="black" d="M4080.17,-49C4088.71,-49 4097.27,-49 4105.82,-49"/>
<polygon fill="black" stroke="black" points="4105.86,-52.5 4115.86,-49 4105.86,-45.5 4105.86,-52.5"/>
</g>
<!-- node7 -->
<g id="node8" class="node">
<title>node7</title>
<polygon fill="none" stroke="black" points="5460,-98 4807,-98 4807,0 5460,0 5460,-98"/>
<text text-anchor="middle" x="5133.5" y="-82.8" font-family="Times,serif" font-size="14.00">INDEX: 4</text>
<text text-anchor="middle" x="5133.5" y="-67.8" font-family="Times,serif" font-size="14.00">Time Stamp: 01&#45;05&#45;25::01:42:24</text>
<text text-anchor="middle" x="5133.5" y="-52.8" font-family="Times,serif" font-size="14.00">DATA: {ID: 7, Nombre: Pedro Pablo, Correo: pedro.pablo@usac.com, Edad: 32} </text>
<text text-anchor="middle" x="5133.5" y="-37.8" font-family="Times,serif" font-size="14.00">Nonce: 42894</text>
<text text-anchor="middle" x="5133.5" y="-22.8" font-family="Times,serif" font-size="14.00">Prev Hash: 00007d1f3fdd3134db09adc22cd0de4b772d40654cc6f387bbc2c38ea1800229</text>
<text text-anchor="middle" x="5133.5" y="-7.8" font-family="Times,serif" font-size="14.00">HASH: 000004b576f45e33c397c9dc0edeaeb4884889b57cb0bc2d0876796b0a2dc09f</text>
</g>
<!-- node6&#45;&gt;node7 -->
<g id="edge7" class="edge">
<title>node6&#45;&gt;node7</title>
<path fill="none" stroke="black" d="M4771.12,-49C4779.66,-49 4788.21,-49 4796.76,-49"/>
<polygon fill="black" stroke="black" points="4796.79,-52.5 4806.79,-49 4796.79,-45.5 4796.79,-52.5"/>
</g>
<!-- node8 -->
<g id="node9" class="node">
<title>node8</title>
<polygon fill="none" stroke="black" points="6155,-98 5496,-98 5496,0 6155,0 6155,-98"/>
<text text-anchor="middle" x="5825.5" y="-82.8" font-family="Times,serif" font-size="14.00">INDEX: 3</text>
<text text-anchor="middle" x="5825.5" y="-67.8" font-family="Times,serif" font-size="14.00">Time Stamp: 01&#45;05&#45;25::01:42:22</text>
<text text-anchor="middle" x="5825.5" y="-52.8" font-family="Times,serif" font-size="14.00">DATA: {ID: 8, Nombre: Laura Isabel, Correo: laura.isabel@usac.com, Edad: 18} </text>
<text text-anchor="middle" x="5825.5" y="-37.8" font-family="Times,serif" font-size="14.00">Nonce: 66551</text>
<text text-anchor="middle" x="5825.5" y="-22.8" font-family="Times,serif" font-size="14.00">Prev Hash: 0000820203f391a616b68459191cca3f1d6567b5708b81dd56d8627f14e9e1d0</text>
<text text-anchor="middle" x="5825.5" y="-7.8" font-family="Times,serif" font-size="14.00">HASH: 00007d1f3fdd3134db09adc22cd0de4b772d40654cc6f387bbc2c38ea1800229</text>
</g>
<!-- node7&#45;&gt;node8 -->
<g id="edge8" class="edge">
<title>node7&#45;&gt;node8</title>
<path fill="none" stroke="black" d="M5460.05,-49C5468.65,-49 5477.26,-49 5485.86,-49"/>
<polygon fill="black" stroke="black" points="5485.96,-52.5 5495.96,-49 5485.96,-45.5 5485.96,-52.5"/>
</g>
<!-- node9 -->
<g id="node10" class="node">
<title>node9</title>
<polygon fill="none" stroke="black" points="6839,-98 6191,-98 6191,0 6839,0 6839,-98"/>
<text text-anchor="middle" x="6515" y="-82.8" font-family="Times,serif" font-size="14.00">INDEX: 2</text>
<text text-anchor="middle" x="6515" y="-67.8" font-family="Times,serif" font-size="14.00">Time Stamp: 01&#45;05&#45;25::01:42:20</text>
<text text-anchor="middle" x="6515" y="-52.8" font-family="Times,serif" font-size="14.00">DATA: {ID: 9, Nombre: Rafael Alejandro, Correo: rafael.alejandro@usac.com, Edad: 20} </text>
<text text-anchor="middle" x="6515" y="-37.8" font-family="Times,serif" font-size="14.00">Nonce: 78755</text>
<text text-anchor="middle" x="6515" y="-22.8" font-family="Times,serif" font-size="14.00">Prev Hash: 00003c0ee0e0c50e2039d6db4a050c32acede1bb99ccc21ca09061f5f3233c48</text>
<text text-anchor="middle" x="6515" y="-7.8" font-family="Times,serif" font-size="14.00">HASH: 0000820203f391a616b68459191cca3f1d6567b5708b81dd56d8627f14e9e1d0</text>
</g>
<!-- node8&#45;&gt;node9 -->
<g id="edge9" class="edge">
<title>node8&#45;&gt;node9</title>
<path fill="none" stroke="black" d="M6155.15,-49C6163.71,-49 6172.28,-49 6180.85,-49"/>
<polygon fill="black" stroke="black" points="6180.89,-52.5 6190.89,-49 6180.89,-45.5 6180.89,-52.5"/>
</g>
<!-- node10 -->
<g id="node11" class="node">
<title>node10</title>
<polygon fill="none" stroke="black" points="7528,-98 6875,-98 6875,0 7528,0 7528,-98"/>
<text text-anchor="middle" x="7201.5" y="-82.8" font-family="Times,serif" font-size="14.00">INDEX: 1</text>
<text text-anchor="middle" x="7201.5" y="-67.8" font-family="Times,serif" font-size="14.00">Time Stamp: 01&#45;05&#45;25::01:42:19</text>
<text text-anchor="middle" x="7201.5" y="-52.8" font-family="Times,serif" font-size="14.00">DATA: {ID: 10, Nombre: Isabel Cristina, Correo: isabel.cristina@usac.com, Edad: 40} </text>
<text text-anchor="middle" x="7201.5" y="-37.8" font-family="Times,serif" font-size="14.00">Nonce: 39563</text>
<text text-anchor="middle" x="7201.5" y="-22.8" font-family="Times,serif" font-size="14.00">Prev Hash: 0000934c6ad3b0533a1986f68349fd7cebd0b1a40e593b9a1d8abae7e18aa55f</text>
<text text-anchor="middle" x="7201.5" y="-7.8" font-family="Times,serif" font-size="14.00">HASH: 00003c0ee0e0c50e2039d6db4a050c32acede1bb99ccc21ca09061f5f3233c48</text>
</g>
<!-- node9&#45;&gt;node10 -->
<g id="edge10" class="edge">
<title>node9&#45;&gt;node10</title>
<path fill="none" stroke="black" d="M6839.21,-49C6847.73,-49 6856.27,-49 6864.8,-49"/>
<polygon fill="black" stroke="black" points="6864.81,-52.5 6874.81,-49 6864.81,-45.5 6864.81,-52.5"/>
</g>
<!-- node11 -->
<g id="node12" class="node">
<title>node11</title>
<polygon fill="none" stroke="black" points="8186,-98 7564,-98 7564,0 8186,0 8186,-98"/>
<text text-anchor="middle" x="7875" y="-82.8" font-family="Times,serif" font-size="14.00">INDEX: 0</text>
<text text-anchor="middle" x="7875" y="-67.8" font-family="Times,serif" font-size="14.00">Time Stamp: 01&#45;05&#45;25::01:42:18</text>
<text text-anchor="middle" x="7875" y="-52.8" font-family="Times,serif" font-size="14.00">DATA: {ID: 12, Nombre: pedro, Correo: pedro@dfa, Edad: 36} </text>
<text text-anchor="middle" x="7875" y="-37.8" font-family="Times,serif" font-size="14.00">Nonce: 33240</text>
<text text-anchor="middle" x="7875" y="-22.8" font-family="Times,serif" font-size="14.00">Prev Hash: 0000</text>
<text text-anchor="middle" x="7875" y="-7.8" font-family="Times,serif" font-size="14.00">HASH: 0000934c6ad3b0533a1986f68349fd7cebd0b1a40e593b9a1d8abae7e18aa55f</text>
</g>
<!-- node10&#45;&gt;node11 -->
<g id="edge11" class="edge">
<title>node10&#45;&gt;node11</title>
<path fill="none" stroke="black" d="M7528.41,-49C7536.85,-49 7545.29,-49 7553.72,-49"/>
<polygon fill="black" stroke="black" points="7553.99,-52.5 7563.99,-49 7553.99,-45.5 7553.99,-52.5"/>
</g>
</g>
</svg>
