<?xml version="1.0" encoding="UTF-8" standalone="no"?>
<!DOCTYPE svg PUBLIC "-//W3C//DTD SVG 1.1//EN"
 "http://www.w3.org/Graphics/SVG/1.1/DTD/svg11.dtd">
<!-- Generated by graphviz version 2.43.0 (0)
 -->
<!-- Title: ListaSimplementeEnlazada Pages: 1 -->
<svg width="8173pt" height="106pt"
 viewBox="0.00 0.00 8173.00 106.00" xmlns="http://www.w3.org/2000/svg" xmlns:xlink="http://www.w3.org/1999/xlink">
<g id="graph0" class="graph" transform="scale(1 1) rotate(0) translate(4 102)">
<title>ListaSimplementeEnlazada</title>
<polygon fill="white" stroke="transparent" points="-4,4 -4,-102 8169,-102 8169,4 -4,4"/>
<!-- node0 -->
<g id="node1" class="node">
<title>node0</title>
<polygon fill="none" stroke="black" points="647,-98 0,-98 0,0 647,0 647,-98"/>
<text text-anchor="middle" x="323.5" y="-82.8" font-family="Times,serif" font-size="14.00">INDEX: 11</text>
<text text-anchor="middle" x="323.5" y="-67.8" font-family="Times,serif" font-size="14.00">Time Stamp: 01&#45;05&#45;25::13:18:05</text>
<text text-anchor="middle" x="323.5" y="-52.8" font-family="Times,serif" font-size="14.00">DATA: {ID: 11, Nombre: Pepe, Correo: pepe.alc@, Edad: 20} </text>
<text text-anchor="middle" x="323.5" y="-37.8" font-family="Times,serif" font-size="14.00">Nonce: 9158</text>
<text text-anchor="middle" x="323.5" y="-22.8" font-family="Times,serif" font-size="14.00">Prev Hash: 000063b6df04bd797c3ab46853bbef7fcf1948fd890701862b44b7dc95d3a43f</text>
<text text-anchor="middle" x="323.5" y="-7.8" font-family="Times,serif" font-size="14.00">HASH: 0000e14ef05b7c2222baa169d8d6c3c88392cb40c298d0aec199721e503e7a82</text>
</g>
<!-- node1 -->
<g id="node2" class="node">
<title>node1</title>
<polygon fill="none" stroke="black" points="1333,-98 683,-98 683,0 1333,0 1333,-98"/>
<text text-anchor="middle" x="1008" y="-82.8" font-family="Times,serif" font-size="14.00">INDEX: 10</text>
<text text-anchor="middle" x="1008" y="-67.8" font-family="Times,serif" font-size="14.00">Time Stamp: 01&#45;05&#45;25::13:18:05</text>
<text text-anchor="middle" x="1008" y="-52.8" font-family="Times,serif" font-size="14.00">DATA: {ID: 1, Nombre: Carlos Alberto, Correo: carlos.alberto@usac.com, Edad: 16} </text>
<text text-anchor="middle" x="1008" y="-37.8" font-family="Times,serif" font-size="14.00">Nonce: 17982</text>
<text text-anchor="middle" x="1008" y="-22.8" font-family="Times,serif" font-size="14.00">Prev Hash: 00007db35c57e34332ecf281bc2f4e07bc9dcd544ca62b15a2a55ddb60b31f3e</text>
<text text-anchor="middle" x="1008" y="-7.8" font-family="Times,serif" font-size="14.00">HASH: 000063b6df04bd797c3ab46853bbef7fcf1948fd890701862b44b7dc95d3a43f</text>
</g>
<!-- node0&#45;&gt;node1 -->
<g id="edge1" class="edge">
<title>node0&#45;&gt;node1</title>
<path fill="none" stroke="black" d="M647.26,-49C655.81,-49 664.38,-49 672.94,-49"/>
<polygon fill="black" stroke="black" points="672.99,-52.5 682.99,-49 672.99,-45.5 672.99,-52.5"/>
</g>
<!-- node2 -->
<g id="node3" class="node">
<title>node2</title>
<polygon fill="none" stroke="black" points="2028,-98 1369,-98 1369,0 2028,0 2028,-98"/>
<text text-anchor="middle" x="1698.5" y="-82.8" font-family="Times,serif" font-size="14.00">INDEX: 9</text>
<text text-anchor="middle" x="1698.5" y="-67.8" font-family="Times,serif" font-size="14.00">Time Stamp: 01&#45;05&#45;25::13:18:03</text>
<text text-anchor="middle" x="1698.5" y="-52.8" font-family="Times,serif" font-size="14.00">DATA: {ID: 2, Nombre: Ana Lucia, Correo: ana.lucia@usac.com, Edad: 39} </text>
<text text-anchor="middle" x="1698.5" y="-37.8" font-family="Times,serif" font-size="14.00">Nonce: 52861</text>
<text text-anchor="middle" x="1698.5" y="-22.8" font-family="Times,serif" font-size="14.00">Prev Hash: 00005b2251d03d7feb084cad2e383e4fb02cd042553062084688ad48c34de5a2</text>
<text text-anchor="middle" x="1698.5" y="-7.8" font-family="Times,serif" font-size="14.00">HASH: 00007db35c57e34332ecf281bc2f4e07bc9dcd544ca62b15a2a55ddb60b31f3e</text>
</g>
<!-- node1&#45;&gt;node2 -->
<g id="edge2" class="edge">
<title>node1&#45;&gt;node2</title>
<path fill="none" stroke="black" d="M1333.09,-49C1341.68,-49 1350.28,-49 1358.88,-49"/>
<polygon fill="black" stroke="black" points="1358.97,-52.5 1368.97,-49 1358.97,-45.5 1358.97,-52.5"/>
</g>
<!-- node3 -->
<g id="node4" class="node">
<title>node3</title>
<polygon fill="none" stroke="black" points="2704,-98 2064,-98 2064,0 2704,0 2704,-98"/>
<text text-anchor="middle" x="2384" y="-82.8" font-family="Times,serif" font-size="14.00">INDEX: 8</text>
<text text-anchor="middle" x="2384" y="-67.8" font-family="Times,serif" font-size="14.00">Time Stamp: 01&#45;05&#45;25::13:18:03</text>
<text text-anchor="middle" x="2384" y="-52.8" font-family="Times,serif" font-size="14.00">DATA: {ID: 3, Nombre: Luis Enrique, Correo: luis.enrique@usac.com, Edad: 50} </text>
<text text-anchor="middle" x="2384" y="-37.8" font-family="Times,serif" font-size="14.00">Nonce: 1453</text>
<text text-anchor="middle" x="2384" y="-22.8" font-family="Times,serif" font-size="14.00">Prev Hash: 00008bbb210b4124f2227c65feb54cea118ff633ad28fefd1c84aae38ea17be8</text>
<text text-anchor="middle" x="2384" y="-7.8" font-family="Times,serif" font-size="14.00">HASH: 00005b2251d03d7feb084cad2e383e4fb02cd042553062084688ad48c34de5a2</text>
</g>
<!-- node2&#45;&gt;node3 -->
<g id="edge3" class="edge">
<title>node2&#45;&gt;node3</title>
<path fill="none" stroke="black" d="M2028.24,-49C2036.78,-49 2045.33,-49 2053.87,-49"/>
<polygon fill="black" stroke="black" points="2053.9,-52.5 2063.9,-49 2053.9,-45.5 2053.9,-52.5"/>
</g>
<!-- node4 -->
<g id="node5" class="node">
<title>node4</title>
<polygon fill="none" stroke="black" points="3387,-98 2740,-98 2740,0 3387,0 3387,-98"/>
<text text-anchor="middle" x="3063.5" y="-82.8" font-family="Times,serif" font-size="14.00">INDEX: 7</text>
<text text-anchor="middle" x="3063.5" y="-67.8" font-family="Times,serif" font-size="14.00">Time Stamp: 01&#45;05&#45;25::13:18:01</text>
<text text-anchor="middle" x="3063.5" y="-52.8" font-family="Times,serif" font-size="14.00">DATA: {ID: 4, Nombre: Marta Isabel, Correo: marta.isabel@usac.com, Edad: 60} </text>
<text text-anchor="middle" x="3063.5" y="-37.8" font-family="Times,serif" font-size="14.00">Nonce: 96165</text>
<text text-anchor="middle" x="3063.5" y="-22.8" font-family="Times,serif" font-size="14.00">Prev Hash: 0000e3778d76f95e276075dbd547f1be5b921b7ff43641157c19061dafc81cc8</text>
<text text-anchor="middle" x="3063.5" y="-7.8" font-family="Times,serif" font-size="14.00">HASH: 00008bbb210b4124f2227c65feb54cea118ff633ad28fefd1c84aae38ea17be8</text>
</g>
<!-- node3&#45;&gt;node4 -->
<g id="edge4" class="edge">
<title>node3&#45;&gt;node4</title>
<path fill="none" stroke="black" d="M2704.41,-49C2712.82,-49 2721.24,-49 2729.67,-49"/>
<polygon fill="black" stroke="black" points="2729.94,-52.5 2739.94,-49 2729.93,-45.5 2729.94,-52.5"/>
</g>
<!-- node5 -->
<g id="node6" class="node">
<title>node5</title>
<polygon fill="none" stroke="black" points="4073,-98 3423,-98 3423,0 4073,0 4073,-98"/>
<text text-anchor="middle" x="3748" y="-82.8" font-family="Times,serif" font-size="14.00">INDEX: 6</text>
<text text-anchor="middle" x="3748" y="-67.8" font-family="Times,serif" font-size="14.00">Time Stamp: 01&#45;05&#45;25::13:17:59</text>
<text text-anchor="middle" x="3748" y="-52.8" font-family="Times,serif" font-size="14.00">DATA: {ID: 5, Nombre: Juan Carlos, Correo: juan.carlos@usac.com, Edad: 46} </text>
<text text-anchor="middle" x="3748" y="-37.8" font-family="Times,serif" font-size="14.00">Nonce: 64730</text>
<text text-anchor="middle" x="3748" y="-22.8" font-family="Times,serif" font-size="14.00">Prev Hash: 0000f4737a365b0ab25c44676d2d5e5b38cc45f9e88e345ba6f6ee8f2361d956</text>
<text text-anchor="middle" x="3748" y="-7.8" font-family="Times,serif" font-size="14.00">HASH: 0000e3778d76f95e276075dbd547f1be5b921b7ff43641157c19061dafc81cc8</text>
</g>
<!-- node4&#45;&gt;node5 -->
<g id="edge5" class="edge">
<title>node4&#45;&gt;node5</title>
<path fill="none" stroke="black" d="M3387.26,-49C3395.81,-49 3404.38,-49 3412.94,-49"/>
<polygon fill="black" stroke="black" points="3412.99,-52.5 3422.99,-49 3412.99,-45.5 3412.99,-52.5"/>
</g>
<!-- node6 -->
<g id="node7" class="node">
<title>node6</title>
<polygon fill="none" stroke="black" points="4759,-98 4109,-98 4109,0 4759,0 4759,-98"/>
<text text-anchor="middle" x="4434" y="-82.8" font-family="Times,serif" font-size="14.00">INDEX: 5</text>
<text text-anchor="middle" x="4434" y="-67.8" font-family="Times,serif" font-size="14.00">Time Stamp: 01&#45;05&#45;25::13:17:59</text>
<text text-anchor="middle" x="4434" y="-52.8" font-family="Times,serif" font-size="14.00">DATA: {ID: 6, Nombre: Maria Fernanda, Correo: maria.fernanda@usac.com, Edad: 39} </text>
<text text-anchor="middle" x="4434" y="-37.8" font-family="Times,serif" font-size="14.00">Nonce: 28930</text>
<text text-anchor="middle" x="4434" y="-22.8" font-family="Times,serif" font-size="14.00">Prev Hash: 00004a5904ae98a5426bddb35639c563bfb52e0f5853532265f3db1ff23adb50</text>
<text text-anchor="middle" x="4434" y="-7.8" font-family="Times,serif" font-size="14.00">HASH: 0000f4737a365b0ab25c44676d2d5e5b38cc45f9e88e345ba6f6ee8f2361d956</text>
</g>
<!-- node5&#45;&gt;node6 -->
<g id="edge6" class="edge">
<title>node5&#45;&gt;node6</title>
<path fill="none" stroke="black" d="M4073.22,-49C4081.78,-49 4090.35,-49 4098.92,-49"/>
<polygon fill="black" stroke="black" points="4098.97,-52.5 4108.97,-49 4098.97,-45.5 4098.97,-52.5"/>
</g>
<!-- node7 -->
<g id="node8" class="node">
<title>node7</title>
<polygon fill="none" stroke="black" points="5452,-98 4795,-98 4795,0 5452,0 5452,-98"/>
<text text-anchor="middle" x="5123.5" y="-82.8" font-family="Times,serif" font-size="14.00">INDEX: 4</text>
<text text-anchor="middle" x="5123.5" y="-67.8" font-family="Times,serif" font-size="14.00">Time Stamp: 01&#45;05&#45;25::13:17:56</text>
<text text-anchor="middle" x="5123.5" y="-52.8" font-family="Times,serif" font-size="14.00">DATA: {ID: 7, Nombre: Pedro Pablo, Correo: pedro.pablo@usac.com, Edad: 32} </text>
<text text-anchor="middle" x="5123.5" y="-37.8" font-family="Times,serif" font-size="14.00">Nonce: 81958</text>
<text text-anchor="middle" x="5123.5" y="-22.8" font-family="Times,serif" font-size="14.00">Prev Hash: 000042d37eab5ae6bc0c95c8c341a0f09d1876a9a691795454ca325e968381ab</text>
<text text-anchor="middle" x="5123.5" y="-7.8" font-family="Times,serif" font-size="14.00">HASH: 00004a5904ae98a5426bddb35639c563bfb52e0f5853532265f3db1ff23adb50</text>
</g>
<!-- node6&#45;&gt;node7 -->
<g id="edge7" class="edge">
<title>node6&#45;&gt;node7</title>
<path fill="none" stroke="black" d="M4759.12,-49C4767.69,-49 4776.27,-49 4784.85,-49"/>
<polygon fill="black" stroke="black" points="4784.91,-52.5 4794.91,-49 4784.91,-45.5 4784.91,-52.5"/>
</g>
<!-- node8 -->
<g id="node9" class="node">
<title>node8</title>
<polygon fill="none" stroke="black" points="6121,-98 5488,-98 5488,0 6121,0 6121,-98"/>
<text text-anchor="middle" x="5804.5" y="-82.8" font-family="Times,serif" font-size="14.00">INDEX: 3</text>
<text text-anchor="middle" x="5804.5" y="-67.8" font-family="Times,serif" font-size="14.00">Time Stamp: 01&#45;05&#45;25::13:17:53</text>
<text text-anchor="middle" x="5804.5" y="-52.8" font-family="Times,serif" font-size="14.00">DATA: {ID: 8, Nombre: Laura Isabel, Correo: laura.isabel@usac.com, Edad: 18} </text>
<text text-anchor="middle" x="5804.5" y="-37.8" font-family="Times,serif" font-size="14.00">Nonce: 126167</text>
<text text-anchor="middle" x="5804.5" y="-22.8" font-family="Times,serif" font-size="14.00">Prev Hash: 0000359b8531cd2b4f8689cfaff402008d131489bce8f663cee20facbffd2609</text>
<text text-anchor="middle" x="5804.5" y="-7.8" font-family="Times,serif" font-size="14.00">HASH: 000042d37eab5ae6bc0c95c8c341a0f09d1876a9a691795454ca325e968381ab</text>
</g>
<!-- node7&#45;&gt;node8 -->
<g id="edge8" class="edge">
<title>node7&#45;&gt;node8</title>
<path fill="none" stroke="black" d="M5452.07,-49C5460.66,-49 5469.26,-49 5477.85,-49"/>
<polygon fill="black" stroke="black" points="5477.93,-52.5 5487.93,-49 5477.93,-45.5 5477.93,-52.5"/>
</g>
<!-- node9 -->
<g id="node10" class="node">
<title>node9</title>
<polygon fill="none" stroke="black" points="6816,-98 6157,-98 6157,0 6816,0 6816,-98"/>
<text text-anchor="middle" x="6486.5" y="-82.8" font-family="Times,serif" font-size="14.00">INDEX: 2</text>
<text text-anchor="middle" x="6486.5" y="-67.8" font-family="Times,serif" font-size="14.00">Time Stamp: 01&#45;05&#45;25::13:17:53</text>
<text text-anchor="middle" x="6486.5" y="-52.8" font-family="Times,serif" font-size="14.00">DATA: {ID: 9, Nombre: Rafael Alejandro, Correo: rafael.alejandro@usac.com, Edad: 20} </text>
<text text-anchor="middle" x="6486.5" y="-37.8" font-family="Times,serif" font-size="14.00">Nonce: 484</text>
<text text-anchor="middle" x="6486.5" y="-22.8" font-family="Times,serif" font-size="14.00">Prev Hash: 00007b7ee59f926d26650df5da2052755a755031e532621d280e70dc8ce4ae63</text>
<text text-anchor="middle" x="6486.5" y="-7.8" font-family="Times,serif" font-size="14.00">HASH: 0000359b8531cd2b4f8689cfaff402008d131489bce8f663cee20facbffd2609</text>
</g>
<!-- node8&#45;&gt;node9 -->
<g id="edge9" class="edge">
<title>node8&#45;&gt;node9</title>
<path fill="none" stroke="black" d="M6121.11,-49C6129.66,-49 6138.23,-49 6146.79,-49"/>
<polygon fill="black" stroke="black" points="6146.84,-52.5 6156.84,-49 6146.84,-45.5 6146.84,-52.5"/>
</g>
<!-- node10 -->
<g id="node11" class="node">
<title>node10</title>
<polygon fill="none" stroke="black" points="7506,-98 6852,-98 6852,0 7506,0 7506,-98"/>
<text text-anchor="middle" x="7179" y="-82.8" font-family="Times,serif" font-size="14.00">INDEX: 1</text>
<text text-anchor="middle" x="7179" y="-67.8" font-family="Times,serif" font-size="14.00">Time Stamp: 01&#45;05&#45;25::13:17:52</text>
<text text-anchor="middle" x="7179" y="-52.8" font-family="Times,serif" font-size="14.00">DATA: {ID: 10, Nombre: Isabel Cristina, Correo: isabel.cristina@usac.com, Edad: 40} </text>
<text text-anchor="middle" x="7179" y="-37.8" font-family="Times,serif" font-size="14.00">Nonce: 24242</text>
<text text-anchor="middle" x="7179" y="-22.8" font-family="Times,serif" font-size="14.00">Prev Hash: 00006cefc3bec956738398ea72b705b4aa477b7eaeb3372fdb6e8ebabb0e0433</text>
<text text-anchor="middle" x="7179" y="-7.8" font-family="Times,serif" font-size="14.00">HASH: 00007b7ee59f926d26650df5da2052755a755031e532621d280e70dc8ce4ae63</text>
</g>
<!-- node9&#45;&gt;node10 -->
<g id="edge10" class="edge">
<title>node9&#45;&gt;node10</title>
<path fill="none" stroke="black" d="M6816.07,-49C6824.62,-49 6833.2,-49 6841.76,-49"/>
<polygon fill="black" stroke="black" points="6841.81,-52.5 6851.81,-49 6841.81,-45.5 6841.81,-52.5"/>
</g>
<!-- node11 -->
<g id="node12" class="node">
<title>node11</title>
<polygon fill="none" stroke="black" points="8165,-98 7542,-98 7542,0 8165,0 8165,-98"/>
<text text-anchor="middle" x="7853.5" y="-82.8" font-family="Times,serif" font-size="14.00">INDEX: 0</text>
<text text-anchor="middle" x="7853.5" y="-67.8" font-family="Times,serif" font-size="14.00">Time Stamp: 01&#45;05&#45;25::13:17:51</text>
<text text-anchor="middle" x="7853.5" y="-52.8" font-family="Times,serif" font-size="14.00">DATA: {ID: 12, Nombre: pedro, Correo: pedro@dfa, Edad: 36} </text>
<text text-anchor="middle" x="7853.5" y="-37.8" font-family="Times,serif" font-size="14.00">Nonce: 16426</text>
<text text-anchor="middle" x="7853.5" y="-22.8" font-family="Times,serif" font-size="14.00">Prev Hash: 0000</text>
<text text-anchor="middle" x="7853.5" y="-7.8" font-family="Times,serif" font-size="14.00">HASH: 00006cefc3bec956738398ea72b705b4aa477b7eaeb3372fdb6e8ebabb0e0433</text>
</g>
<!-- node10&#45;&gt;node11 -->
<g id="edge11" class="edge">
<title>node10&#45;&gt;node11</title>
<path fill="none" stroke="black" d="M7506.4,-49C7514.79,-49 7523.18,-49 7531.56,-49"/>
<polygon fill="black" stroke="black" points="7531.78,-52.5 7541.78,-49 7531.78,-45.5 7531.78,-52.5"/>
</g>
</g>
</svg>
