<?xml version="1.0" encoding="UTF-8" standalone="no"?>
<!DOCTYPE svg PUBLIC "-//W3C//DTD SVG 1.1//EN"
 "http://www.w3.org/Graphics/SVG/1.1/DTD/svg11.dtd">
<!-- Generated by graphviz version 2.43.0 (0)
 -->
<!-- Title: ListaDoblementeEnlazada Pages: 1 -->
<svg width="3000pt" height="91pt"
 viewBox="0.00 0.00 3000.00 91.00" xmlns="http://www.w3.org/2000/svg" xmlns:xlink="http://www.w3.org/1999/xlink">
<g id="graph0" class="graph" transform="scale(1 1) rotate(0) translate(4 87)">
<title>ListaDoblementeEnlazada</title>
<polygon fill="white" stroke="transparent" points="-4,4 -4,-87 2996,-87 2996,4 -4,4"/>
<!-- node0 -->
<g id="node1" class="node">
<title>node0</title>
<polygon fill="none" stroke="black" points="157,-83 0,-83 0,0 157,0 157,-83"/>
<text text-anchor="middle" x="78.5" y="-67.8" font-family="Times,serif" font-size="14.00">ID :1</text>
<text text-anchor="middle" x="78.5" y="-52.8" font-family="Times,serif" font-size="14.00">Usuario ID: 1</text>
<text text-anchor="middle" x="78.5" y="-37.8" font-family="Times,serif" font-size="14.00">Marca: Honda Civic</text>
<text text-anchor="middle" x="78.5" y="-22.8" font-family="Times,serif" font-size="14.00">Modelo: 2005</text>
<text text-anchor="middle" x="78.5" y="-7.8" font-family="Times,serif" font-size="14.00">Placa: XZJ7H9K</text>
</g>
<!-- node1 -->
<g id="node2" class="node">
<title>node1</title>
<polygon fill="none" stroke="black" points="366,-83 193,-83 193,0 366,0 366,-83"/>
<text text-anchor="middle" x="279.5" y="-67.8" font-family="Times,serif" font-size="14.00">ID :2</text>
<text text-anchor="middle" x="279.5" y="-52.8" font-family="Times,serif" font-size="14.00">Usuario ID: 2</text>
<text text-anchor="middle" x="279.5" y="-37.8" font-family="Times,serif" font-size="14.00">Marca: Toyota Corolla</text>
<text text-anchor="middle" x="279.5" y="-22.8" font-family="Times,serif" font-size="14.00">Modelo: 2010</text>
<text text-anchor="middle" x="279.5" y="-7.8" font-family="Times,serif" font-size="14.00">Placa: JKS8T5A</text>
</g>
<!-- node0&#45;&gt;node1 -->
<g id="edge1" class="edge">
<title>node0&#45;&gt;node1</title>
<path fill="none" stroke="black" d="M157.01,-34.9C165.48,-34.78 174.18,-34.73 182.83,-34.75"/>
<polygon fill="black" stroke="black" points="182.94,-38.25 192.96,-34.81 182.98,-31.26 182.94,-38.25"/>
</g>
<!-- node1&#45;&gt;node0 -->
<g id="edge3" class="edge">
<title>node1&#45;&gt;node0</title>
<path fill="none" stroke="black" d="M192.96,-48.19C184.37,-48.26 175.65,-48.27 167.04,-48.21"/>
<polygon fill="black" stroke="black" points="167.04,-44.71 157.01,-48.1 166.97,-51.71 167.04,-44.71"/>
</g>
<!-- node2 -->
<g id="node3" class="node">
<title>node2</title>
<polygon fill="none" stroke="black" points="551,-83 402,-83 402,0 551,0 551,-83"/>
<text text-anchor="middle" x="476.5" y="-67.8" font-family="Times,serif" font-size="14.00">ID :3</text>
<text text-anchor="middle" x="476.5" y="-52.8" font-family="Times,serif" font-size="14.00">Usuario ID: 2</text>
<text text-anchor="middle" x="476.5" y="-37.8" font-family="Times,serif" font-size="14.00">Marca: Ford Focus</text>
<text text-anchor="middle" x="476.5" y="-22.8" font-family="Times,serif" font-size="14.00">Modelo: 2008</text>
<text text-anchor="middle" x="476.5" y="-7.8" font-family="Times,serif" font-size="14.00">Placa: YT2XG9M</text>
</g>
<!-- node1&#45;&gt;node2 -->
<g id="edge2" class="edge">
<title>node1&#45;&gt;node2</title>
<path fill="none" stroke="black" d="M366.03,-34.8C374.54,-34.73 383.18,-34.74 391.67,-34.81"/>
<polygon fill="black" stroke="black" points="391.9,-38.31 401.94,-34.93 391.99,-31.31 391.9,-38.31"/>
</g>
<!-- node2&#45;&gt;node1 -->
<g id="edge5" class="edge">
<title>node2&#45;&gt;node1</title>
<path fill="none" stroke="black" d="M401.94,-48.07C393.52,-48.2 384.84,-48.26 376.17,-48.25"/>
<polygon fill="black" stroke="black" points="376.05,-44.75 366.03,-48.2 376.01,-51.75 376.05,-44.75"/>
</g>
<!-- node3 -->
<g id="node4" class="node">
<title>node3</title>
<polygon fill="none" stroke="black" points="757,-83 587,-83 587,0 757,0 757,-83"/>
<text text-anchor="middle" x="672" y="-67.8" font-family="Times,serif" font-size="14.00">ID :4</text>
<text text-anchor="middle" x="672" y="-52.8" font-family="Times,serif" font-size="14.00">Usuario ID: 3</text>
<text text-anchor="middle" x="672" y="-37.8" font-family="Times,serif" font-size="14.00">Marca: Nissan Altima</text>
<text text-anchor="middle" x="672" y="-22.8" font-family="Times,serif" font-size="14.00">Modelo: 2012</text>
<text text-anchor="middle" x="672" y="-7.8" font-family="Times,serif" font-size="14.00">Placa: FTE6V3R</text>
</g>
<!-- node2&#45;&gt;node3 -->
<g id="edge4" class="edge">
<title>node2&#45;&gt;node3</title>
<path fill="none" stroke="black" d="M551.21,-34.92C559.57,-34.8 568.18,-34.74 576.77,-34.75"/>
<polygon fill="black" stroke="black" points="576.8,-38.25 586.82,-34.8 576.84,-31.25 576.8,-38.25"/>
</g>
<!-- node3&#45;&gt;node2 -->
<g id="edge7" class="edge">
<title>node3&#45;&gt;node2</title>
<path fill="none" stroke="black" d="M586.82,-48.2C578.39,-48.27 569.83,-48.27 561.4,-48.2"/>
<polygon fill="black" stroke="black" points="561.25,-44.69 551.21,-48.08 561.16,-51.69 561.25,-44.69"/>
</g>
<!-- node4 -->
<g id="node5" class="node">
<title>node4</title>
<polygon fill="none" stroke="black" points="972,-83 793,-83 793,0 972,0 972,-83"/>
<text text-anchor="middle" x="882.5" y="-67.8" font-family="Times,serif" font-size="14.00">ID :5</text>
<text text-anchor="middle" x="882.5" y="-52.8" font-family="Times,serif" font-size="14.00">Usuario ID: 3</text>
<text text-anchor="middle" x="882.5" y="-37.8" font-family="Times,serif" font-size="14.00">Marca: Chevrolet Aveo</text>
<text text-anchor="middle" x="882.5" y="-22.8" font-family="Times,serif" font-size="14.00">Modelo: 2007</text>
<text text-anchor="middle" x="882.5" y="-7.8" font-family="Times,serif" font-size="14.00">Placa: BZX5D2L</text>
</g>
<!-- node3&#45;&gt;node4 -->
<g id="edge6" class="edge">
<title>node3&#45;&gt;node4</title>
<path fill="none" stroke="black" d="M757.2,-34.86C765.65,-34.77 774.28,-34.73 782.86,-34.76"/>
<polygon fill="black" stroke="black" points="782.88,-38.26 792.9,-34.82 782.92,-31.26 782.88,-38.26"/>
</g>
<!-- node4&#45;&gt;node3 -->
<g id="edge9" class="edge">
<title>node4&#45;&gt;node3</title>
<path fill="none" stroke="black" d="M792.9,-48.18C784.49,-48.26 775.93,-48.27 767.47,-48.22"/>
<polygon fill="black" stroke="black" points="767.23,-44.72 757.2,-48.14 767.17,-51.72 767.23,-44.72"/>
</g>
<!-- node5 -->
<g id="node6" class="node">
<title>node5</title>
<polygon fill="none" stroke="black" points="1196,-83 1008,-83 1008,0 1196,0 1196,-83"/>
<text text-anchor="middle" x="1102" y="-67.8" font-family="Times,serif" font-size="14.00">ID :6</text>
<text text-anchor="middle" x="1102" y="-52.8" font-family="Times,serif" font-size="14.00">Usuario ID: 3</text>
<text text-anchor="middle" x="1102" y="-37.8" font-family="Times,serif" font-size="14.00">Marca: Hyundai Elantra</text>
<text text-anchor="middle" x="1102" y="-22.8" font-family="Times,serif" font-size="14.00">Modelo: 2015</text>
<text text-anchor="middle" x="1102" y="-7.8" font-family="Times,serif" font-size="14.00">Placa: QWE3P0F</text>
</g>
<!-- node4&#45;&gt;node5 -->
<g id="edge8" class="edge">
<title>node4&#45;&gt;node5</title>
<path fill="none" stroke="black" d="M972.28,-34.85C980.72,-34.76 989.33,-34.73 997.89,-34.76"/>
<polygon fill="black" stroke="black" points="997.89,-38.26 1007.91,-34.81 997.93,-31.26 997.89,-38.26"/>
</g>
<!-- node5&#45;&gt;node4 -->
<g id="edge11" class="edge">
<title>node5&#45;&gt;node4</title>
<path fill="none" stroke="black" d="M1007.91,-48.19C999.51,-48.25 990.98,-48.27 982.53,-48.23"/>
<polygon fill="black" stroke="black" points="982.31,-44.72 972.28,-48.15 982.25,-51.72 982.31,-44.72"/>
</g>
<!-- node6 -->
<g id="node7" class="node">
<title>node6</title>
<polygon fill="none" stroke="black" points="1371,-83 1232,-83 1232,0 1371,0 1371,-83"/>
<text text-anchor="middle" x="1301.5" y="-67.8" font-family="Times,serif" font-size="14.00">ID :7</text>
<text text-anchor="middle" x="1301.5" y="-52.8" font-family="Times,serif" font-size="14.00">Usuario ID: 4</text>
<text text-anchor="middle" x="1301.5" y="-37.8" font-family="Times,serif" font-size="14.00">Marca: Mazda 3</text>
<text text-anchor="middle" x="1301.5" y="-22.8" font-family="Times,serif" font-size="14.00">Modelo: 2011</text>
<text text-anchor="middle" x="1301.5" y="-7.8" font-family="Times,serif" font-size="14.00">Placa: MSD9H8A</text>
</g>
<!-- node5&#45;&gt;node6 -->
<g id="edge10" class="edge">
<title>node5&#45;&gt;node6</title>
<path fill="none" stroke="black" d="M1196.26,-34.76C1204.78,-34.73 1213.35,-34.77 1221.73,-34.87"/>
<polygon fill="black" stroke="black" points="1221.77,-38.38 1231.83,-35.04 1221.88,-31.38 1221.77,-38.38"/>
</g>
<!-- node6&#45;&gt;node5 -->
<g id="edge13" class="edge">
<title>node6&#45;&gt;node5</title>
<path fill="none" stroke="black" d="M1231.83,-47.96C1223.57,-48.13 1215,-48.22 1206.38,-48.24"/>
<polygon fill="black" stroke="black" points="1206.26,-44.74 1196.26,-48.24 1206.25,-51.74 1206.26,-44.74"/>
</g>
<!-- node7 -->
<g id="node8" class="node">
<title>node7</title>
<polygon fill="none" stroke="black" points="1538,-83 1407,-83 1407,0 1538,0 1538,-83"/>
<text text-anchor="middle" x="1472.5" y="-67.8" font-family="Times,serif" font-size="14.00">ID :8</text>
<text text-anchor="middle" x="1472.5" y="-52.8" font-family="Times,serif" font-size="14.00">Usuario ID: 5</text>
<text text-anchor="middle" x="1472.5" y="-37.8" font-family="Times,serif" font-size="14.00">Marca: Kia Rio</text>
<text text-anchor="middle" x="1472.5" y="-22.8" font-family="Times,serif" font-size="14.00">Modelo: 2014</text>
<text text-anchor="middle" x="1472.5" y="-7.8" font-family="Times,serif" font-size="14.00">Placa: RT5Y4O2</text>
</g>
<!-- node6&#45;&gt;node7 -->
<g id="edge12" class="edge">
<title>node6&#45;&gt;node7</title>
<path fill="none" stroke="black" d="M1371.24,-34.86C1379.62,-34.74 1388.22,-34.72 1396.68,-34.79"/>
<polygon fill="black" stroke="black" points="1396.87,-38.29 1406.92,-34.92 1396.96,-31.29 1396.87,-38.29"/>
</g>
<!-- node7&#45;&gt;node6 -->
<g id="edge15" class="edge">
<title>node7&#45;&gt;node6</title>
<path fill="none" stroke="black" d="M1406.92,-48.08C1398.52,-48.23 1389.85,-48.28 1381.26,-48.24"/>
<polygon fill="black" stroke="black" points="1381.27,-44.74 1371.24,-48.14 1381.21,-51.74 1381.27,-44.74"/>
</g>
<!-- node8 -->
<g id="node9" class="node">
<title>node8</title>
<polygon fill="none" stroke="black" points="1744,-83 1574,-83 1574,0 1744,0 1744,-83"/>
<text text-anchor="middle" x="1659" y="-67.8" font-family="Times,serif" font-size="14.00">ID :9</text>
<text text-anchor="middle" x="1659" y="-52.8" font-family="Times,serif" font-size="14.00">Usuario ID: 5</text>
<text text-anchor="middle" x="1659" y="-37.8" font-family="Times,serif" font-size="14.00">Marca: Honda Accord</text>
<text text-anchor="middle" x="1659" y="-22.8" font-family="Times,serif" font-size="14.00">Modelo: 2009</text>
<text text-anchor="middle" x="1659" y="-7.8" font-family="Times,serif" font-size="14.00">Placa: VBR9P1S</text>
</g>
<!-- node7&#45;&gt;node8 -->
<g id="edge14" class="edge">
<title>node7&#45;&gt;node8</title>
<path fill="none" stroke="black" d="M1538.03,-35.03C1546.32,-34.86 1554.94,-34.76 1563.58,-34.75"/>
<polygon fill="black" stroke="black" points="1563.72,-38.25 1573.73,-34.77 1563.73,-31.25 1563.72,-38.25"/>
</g>
<!-- node8&#45;&gt;node7 -->
<g id="edge17" class="edge">
<title>node8&#45;&gt;node7</title>
<path fill="none" stroke="black" d="M1573.73,-48.23C1565.2,-48.28 1556.59,-48.25 1548.17,-48.14"/>
<polygon fill="black" stroke="black" points="1548.09,-44.64 1538.03,-47.97 1547.97,-51.64 1548.09,-44.64"/>
</g>
<!-- node9 -->
<g id="node10" class="node">
<title>node9</title>
<polygon fill="none" stroke="black" points="1965,-83 1780,-83 1780,0 1965,0 1965,-83"/>
<text text-anchor="middle" x="1872.5" y="-67.8" font-family="Times,serif" font-size="14.00">ID :10</text>
<text text-anchor="middle" x="1872.5" y="-52.8" font-family="Times,serif" font-size="14.00">Usuario ID: 6</text>
<text text-anchor="middle" x="1872.5" y="-37.8" font-family="Times,serif" font-size="14.00">Marca: Subaru Impreza</text>
<text text-anchor="middle" x="1872.5" y="-22.8" font-family="Times,serif" font-size="14.00">Modelo: 2016</text>
<text text-anchor="middle" x="1872.5" y="-7.8" font-family="Times,serif" font-size="14.00">Placa: XZJ3M5P</text>
</g>
<!-- node8&#45;&gt;node9 -->
<g id="edge16" class="edge">
<title>node8&#45;&gt;node9</title>
<path fill="none" stroke="black" d="M1744.2,-34.88C1752.64,-34.78 1761.28,-34.74 1769.88,-34.75"/>
<polygon fill="black" stroke="black" points="1769.93,-38.25 1779.95,-34.8 1769.96,-31.25 1769.93,-38.25"/>
</g>
<!-- node9&#45;&gt;node8 -->
<g id="edge19" class="edge">
<title>node9&#45;&gt;node8</title>
<path fill="none" stroke="black" d="M1779.95,-48.2C1771.5,-48.26 1762.94,-48.27 1754.47,-48.22"/>
<polygon fill="black" stroke="black" points="1754.23,-44.71 1744.2,-48.12 1754.17,-51.71 1754.23,-44.71"/>
</g>
<!-- node10 -->
<g id="node11" class="node">
<title>node10</title>
<polygon fill="none" stroke="black" points="2142,-83 2001,-83 2001,0 2142,0 2142,-83"/>
<text text-anchor="middle" x="2071.5" y="-67.8" font-family="Times,serif" font-size="14.00">ID :11</text>
<text text-anchor="middle" x="2071.5" y="-52.8" font-family="Times,serif" font-size="14.00">Usuario ID: 6</text>
<text text-anchor="middle" x="2071.5" y="-37.8" font-family="Times,serif" font-size="14.00">Marca: BMW X3</text>
<text text-anchor="middle" x="2071.5" y="-22.8" font-family="Times,serif" font-size="14.00">Modelo: 2013</text>
<text text-anchor="middle" x="2071.5" y="-7.8" font-family="Times,serif" font-size="14.00">Placa: BNM8D7Q</text>
</g>
<!-- node9&#45;&gt;node10 -->
<g id="edge18" class="edge">
<title>node9&#45;&gt;node10</title>
<path fill="none" stroke="black" d="M1965.08,-34.76C1973.65,-34.73 1982.29,-34.76 1990.74,-34.86"/>
<polygon fill="black" stroke="black" points="1990.89,-38.36 2000.94,-35.02 1991,-31.36 1990.89,-38.36"/>
</g>
<!-- node10&#45;&gt;node9 -->
<g id="edge21" class="edge">
<title>node10&#45;&gt;node9</title>
<path fill="none" stroke="black" d="M2000.94,-47.98C1992.6,-48.14 1983.95,-48.23 1975.27,-48.25"/>
<polygon fill="black" stroke="black" points="1975.08,-44.75 1965.08,-48.24 1975.08,-51.75 1975.08,-44.75"/>
</g>
<!-- node11 -->
<g id="node12" class="node">
<title>node11</title>
<polygon fill="none" stroke="black" points="2371,-83 2178,-83 2178,0 2371,0 2371,-83"/>
<text text-anchor="middle" x="2274.5" y="-67.8" font-family="Times,serif" font-size="14.00">ID :12</text>
<text text-anchor="middle" x="2274.5" y="-52.8" font-family="Times,serif" font-size="14.00">Usuario ID: 7</text>
<text text-anchor="middle" x="2274.5" y="-37.8" font-family="Times,serif" font-size="14.00">Marca: Volkswagen Jetta</text>
<text text-anchor="middle" x="2274.5" y="-22.8" font-family="Times,serif" font-size="14.00">Modelo: 2012</text>
<text text-anchor="middle" x="2274.5" y="-7.8" font-family="Times,serif" font-size="14.00">Placa: JXK3L9D</text>
</g>
<!-- node10&#45;&gt;node11 -->
<g id="edge20" class="edge">
<title>node10&#45;&gt;node11</title>
<path fill="none" stroke="black" d="M2142.24,-35.04C2150.47,-34.88 2159,-34.79 2167.59,-34.76"/>
<polygon fill="black" stroke="black" points="2167.68,-38.26 2177.68,-34.76 2167.68,-31.26 2167.68,-38.26"/>
</g>
<!-- node11&#45;&gt;node10 -->
<g id="edge23" class="edge">
<title>node11&#45;&gt;node10</title>
<path fill="none" stroke="black" d="M2177.68,-48.24C2169.18,-48.27 2160.64,-48.23 2152.3,-48.12"/>
<polygon fill="black" stroke="black" points="2152.29,-44.62 2142.24,-47.96 2152.18,-51.62 2152.29,-44.62"/>
</g>
<!-- node12 -->
<g id="node13" class="node">
<title>node12</title>
<polygon fill="none" stroke="black" points="2577,-83 2407,-83 2407,0 2577,0 2577,-83"/>
<text text-anchor="middle" x="2492" y="-67.8" font-family="Times,serif" font-size="14.00">ID :13</text>
<text text-anchor="middle" x="2492" y="-52.8" font-family="Times,serif" font-size="14.00">Usuario ID: 8</text>
<text text-anchor="middle" x="2492" y="-37.8" font-family="Times,serif" font-size="14.00">Marca: Toyota Camry</text>
<text text-anchor="middle" x="2492" y="-22.8" font-family="Times,serif" font-size="14.00">Modelo: 2014</text>
<text text-anchor="middle" x="2492" y="-7.8" font-family="Times,serif" font-size="14.00">Placa: OIJ6R4F</text>
</g>
<!-- node11&#45;&gt;node12 -->
<g id="edge22" class="edge">
<title>node11&#45;&gt;node12</title>
<path fill="none" stroke="black" d="M2371.28,-34.79C2379.67,-34.73 2388.16,-34.74 2396.54,-34.8"/>
<polygon fill="black" stroke="black" points="2396.66,-38.3 2406.69,-34.89 2396.73,-31.3 2396.66,-38.3"/>
</g>
<!-- node12&#45;&gt;node11 -->
<g id="edge25" class="edge">
<title>node12&#45;&gt;node11</title>
<path fill="none" stroke="black" d="M2406.69,-48.11C2398.43,-48.21 2389.98,-48.26 2381.55,-48.25"/>
<polygon fill="black" stroke="black" points="2381.29,-44.75 2371.28,-48.21 2381.26,-51.75 2381.29,-44.75"/>
</g>
<!-- node13 -->
<g id="node14" class="node">
<title>node13</title>
<polygon fill="none" stroke="black" points="2800,-83 2613,-83 2613,0 2800,0 2800,-83"/>
<text text-anchor="middle" x="2706.5" y="-67.8" font-family="Times,serif" font-size="14.00">ID :14</text>
<text text-anchor="middle" x="2706.5" y="-52.8" font-family="Times,serif" font-size="14.00">Usuario ID: 9</text>
<text text-anchor="middle" x="2706.5" y="-37.8" font-family="Times,serif" font-size="14.00">Marca: Chevrolet Spark</text>
<text text-anchor="middle" x="2706.5" y="-22.8" font-family="Times,serif" font-size="14.00">Modelo: 2011</text>
<text text-anchor="middle" x="2706.5" y="-7.8" font-family="Times,serif" font-size="14.00">Placa: XTR9E1Q</text>
</g>
<!-- node12&#45;&gt;node13 -->
<g id="edge24" class="edge">
<title>node12&#45;&gt;node13</title>
<path fill="none" stroke="black" d="M2577.29,-34.88C2585.7,-34.78 2594.31,-34.74 2602.88,-34.75"/>
<polygon fill="black" stroke="black" points="2602.9,-38.25 2612.91,-34.8 2602.93,-31.25 2602.9,-38.25"/>
</g>
<!-- node13&#45;&gt;node12 -->
<g id="edge27" class="edge">
<title>node13&#45;&gt;node12</title>
<path fill="none" stroke="black" d="M2612.91,-48.2C2604.49,-48.26 2595.96,-48.27 2587.52,-48.21"/>
<polygon fill="black" stroke="black" points="2587.32,-44.71 2577.29,-48.12 2587.26,-51.71 2587.32,-44.71"/>
</g>
<!-- node14 -->
<g id="node15" class="node">
<title>node14</title>
<polygon fill="none" stroke="black" points="2992,-83 2836,-83 2836,0 2992,0 2992,-83"/>
<text text-anchor="middle" x="2914" y="-67.8" font-family="Times,serif" font-size="14.00">ID :15</text>
<text text-anchor="middle" x="2914" y="-52.8" font-family="Times,serif" font-size="14.00">Usuario ID: 10</text>
<text text-anchor="middle" x="2914" y="-37.8" font-family="Times,serif" font-size="14.00">Marca: Mazda CX&#45;5</text>
<text text-anchor="middle" x="2914" y="-22.8" font-family="Times,serif" font-size="14.00">Modelo: 2017</text>
<text text-anchor="middle" x="2914" y="-7.8" font-family="Times,serif" font-size="14.00">Placa: VWL3P0D</text>
</g>
<!-- node13&#45;&gt;node14 -->
<g id="edge26" class="edge">
<title>node13&#45;&gt;node14</title>
<path fill="none" stroke="black" d="M2800.03,-34.78C2808.51,-34.73 2817.09,-34.74 2825.53,-34.82"/>
<polygon fill="black" stroke="black" points="2825.69,-38.32 2835.73,-34.94 2825.77,-31.32 2825.69,-38.32"/>
</g>
<!-- node14&#45;&gt;node13 -->
<g id="edge28" class="edge">
<title>node14&#45;&gt;node13</title>
<path fill="none" stroke="black" d="M2835.73,-48.06C2827.36,-48.19 2818.74,-48.25 2810.13,-48.25"/>
<polygon fill="black" stroke="black" points="2810.04,-44.75 2800.03,-48.22 2810.02,-51.75 2810.04,-44.75"/>
</g>
</g>
</svg>
